<?xml version="1.0" encoding="utf-8"?>
<!-- Generator: Adobe Illustrator 18.1.1, SVG Export Plug-In . SVG Version: 6.00 Build 0)  -->
<svg version="1.1" id="Layer_1" xmlns="http://www.w3.org/2000/svg" xmlns:xlink="http://www.w3.org/1999/xlink" x="0px" y="0px"
	 viewBox="0 0 24 24" enable-background="new 0 0 24 24" xml:space="preserve">
<g>
	<path d="M4.3,14.1c-0.4-1.4-0.4-2.9,0-4.2L2.4,9.1c-0.6,1.8-0.6,3.8,0,5.8L4.3,14.1z"/>
	<path d="M8,18.9c-1.2-0.7-2.3-1.7-3-3l-1.9,0.8c1,1.8,2.4,3.2,4.1,4.1L8,18.9z"/>
	<path d="M9.1,2.4l0.8,1.9c1.4-0.4,2.9-0.4,4.2,0l0.8-1.9C13.1,1.9,11.1,1.8,9.1,2.4z"/>
	<path d="M5.1,8c0.7-1.2,1.7-2.3,3-3L7.3,3.2c-1.8,1-3.2,2.4-4.1,4.1L5.1,8z"/>
	<path d="M16,5.1c1.2,0.7,2.3,1.7,3,3l1.9-0.8c-1-1.8-2.4-3.2-4.1-4.1L16,5.1z"/>
	<path d="M19.7,9.9c0.4,1.4,0.4,2.9,0,4.2l1.9,0.8c0.6-1.8,0.6-3.8,0-5.8L19.7,9.9z"/>
	<path d="M14.1,19.7c-1.4,0.4-2.9,0.4-4.2,0l-0.8,1.9c1.8,0.6,3.8,0.6,5.8,0L14.1,19.7z"/>
	<path d="M18.9,16c-0.7,1.2-1.7,2.3-3,3l0.8,1.9c1.8-1,3.2-2.4,4.1-4.1L18.9,16z"/>
</g>
</svg>
