<?xml version="1.0" standalone="no"?>
<!DOCTYPE svg PUBLIC "-//W3C//DTD SVG 1.1//EN" "http://www.w3.org/Graphics/SVG/1.1/DTD/svg11.dtd" >
<!--
2015-1-7: Created.
-->
<svg xmlns="http://www.w3.org/2000/svg">
<metadata>
Created by FontForge 20120731 at Wed Jan  7 10:29:06 2015
 By Matt Powell
Created by Matt Powell with FontForge 2.0 (http://fontforge.sf.net)
</metadata>
<defs>
<font id="icons" horiz-adv-x="512" >
  <font-face 
    font-family="icons"
    font-weight="500"
    font-stretch="normal"
    units-per-em="512"
    panose-1="2 0 6 9 0 0 0 0 0 0"
    ascent="448"
    descent="-64"
    bbox="0 -192 512.427 448.054"
    underline-thickness="25.6"
    underline-position="-51.2"
    unicode-range="U+F100-F3F5"
  />
    <missing-glyph />
    <glyph glyph-name="uniF1CF" unicode="&#xf1cf;" 
d="M213.333 21.333v341.334h85.334v-341.334h-85.334zM85.333 21.333v170.667h85.334v-170.667h-85.334zM341.333 256h85.334v-234.667h-85.334v234.667z" />
    <glyph glyph-name="uniF1C3" unicode="&#xf1c3;" 
d="M256 405.333c117.76 0 213.333 -95.5732 213.333 -213.333s-95.5732 -213.333 -213.333 -213.333s-213.333 95.5732 -213.333 213.333s95.5732 213.333 213.333 213.333zM256 21.333c39.4668 0 75.7334 13.4404 104.533 36.0537l-239.146 239.146
c-22.6133 -28.7998 -36.0537 -65.0664 -36.0537 -104.533c0 -94.293 76.374 -170.667 170.667 -170.667zM390.613 87.4668c22.6133 28.7998 36.0537 65.0664 36.0537 104.533c0 94.293 -76.374 170.667 -170.667 170.667c-39.4668 0 -75.7334 -13.4404 -104.533 -36.0537z
" />
    <glyph glyph-name="uniF358" unicode="&#xf358;" 
d="M42.667 -21.333l426.666 426.666v-426.666h-426.666z" />
    <glyph glyph-name="uniF190" unicode="&#xf190;" 
d="M412.8 233.813c55.4668 -3.83984 99.2002 -49.4932 99.2002 -105.813c0 -35.8398 -17.9199 -67.4131 -45.0137 -86.8271l-30.9326 30.9336c19.626 10.8799 33.2793 31.7871 33.2793 55.8936c0 35.4131 -28.5859 64 -64 64h-32v10.667
c0 64.8525 -52.4795 117.333 -117.333 117.333c-19.627 0 -38.1865 -4.90625 -54.4004 -13.4404l-31.1465 31.1475c24.7471 15.7861 53.9736 24.96 85.5469 24.96c77.6533 0 142.293 -55.2539 156.8 -128.854zM64 335.573l27.0938 27.0938l356.906 -356.907
l-27.0938 -27.0928l-42.666 42.666h-250.24c-70.6133 0 -128 57.3867 -128 128c0 68.9072 54.6133 124.801 122.667 127.787zM164.906 234.667h-36.9062c-47.1465 0 -85.333 -38.1865 -85.333 -85.334c0 -47.1465 38.1865 -85.333 85.333 -85.333h207.573z" />
    <glyph glyph-name="uniF3AC" unicode="&#xf3ac;" 
d="M384 384h42.667v-384h-42.667v42.667h-42.667v-42.667h-170.666v42.667h-42.667v-42.667h-42.667v384h42.667v-42.667h42.667v42.667h170.666v-42.667h42.667v42.667zM170.667 85.333v42.667h-42.667v-42.667h42.667zM170.667 170.667v42.666h-42.667v-42.666h42.667z
M170.667 256v42.667h-42.667v-42.667h42.667zM384 85.333v42.667h-42.667v-42.667h42.667zM384 170.667v42.666h-42.667v-42.666h42.667zM384 256v42.667h-42.667v-42.667h42.667z" />
    <glyph glyph-name="uniF3DD" unicode="&#xf3dd;" 
d="M256 298.667c-13.8662 0 -26.8799 -2.77344 -39.04 -7.68066l-46.0801 46.0801c26.4531 9.60059 55.04 14.9336 84.9072 14.9336c106.666 0 197.76 -66.3467 234.666 -160c-15.5732 -39.6797 -40.96 -74.4531 -73.1729 -101.333l-62.2939 62.293
c4.90723 12.1602 7.68066 25.1738 7.68066 39.04c0 58.8799 -47.7871 106.667 -106.667 106.667zM42.667 356.906l27.0928 27.0938l378.24 -378.24l-27.0938 -27.0928l-62.5059 62.293l-8.95996 8.95996c-28.8008 -11.5195 -60.374 -17.9199 -93.4404 -17.9199
c-106.667 0 -197.76 66.3467 -234.667 160c16.6406 42.2402 44.374 78.9336 79.7871 106.453l-9.81348 9.81348zM160.64 238.934c-7.04004 -14.2939 -11.3066 -30.0801 -11.3066 -46.9336c0 -58.8799 47.7871 -106.667 106.667 -106.667
c16.8535 0 32.6396 4.2666 46.9336 11.3066l-33.0674 33.0674c-4.47949 -1.06738 -9.17285 -1.70703 -13.8662 -1.70703c-35.4131 0 -64 28.5869 -64 64c0 4.69336 0.639648 9.38672 1.70703 13.8662zM252.587 255.573l3.62598 0.213867c35.4141 0 64 -28.5869 64 -64
l-0.425781 -3.41406z" />
    <glyph glyph-name="uniF2AF" unicode="&#xf2af;" 
d="M256 149.333c-35.4131 0 -64 28.5869 -64 64v128c0 35.4141 28.5869 64 64 64s64 -28.5859 64 -64l-0.212891 -128c0 -35.4131 -28.374 -64 -63.7871 -64zM230.4 343.467v-132.267c0 -14.0801 11.5195 -25.6006 25.5996 -25.6006s25.3867 11.5205 25.3867 25.6006
l0.212891 132.267c0 14.0801 -11.5195 25.5996 -25.5996 25.5996s-25.5996 -11.5195 -25.5996 -25.5996zM369.066 213.333h36.2666c0 -72.96 -58.0264 -133.12 -128 -143.359v-69.9736h-42.666v69.9736c-69.9736 10.4531 -128 70.6133 -128 143.359h36.2666
c0 -64 54.1865 -108.8 113.066 -108.8s113.066 44.7998 113.066 108.8z" />
    <glyph glyph-name="uniF277" unicode="&#xf277;" 
d="M234.667 170.667l-170.667 170.666v42.667h384v-42.667l-170.667 -170.666v-128h106.667v-42.667h-256v42.667h106.667v128zM160 298.667h192l42.667 42.666h-277.334z" />
    <glyph glyph-name="uniF26C" unicode="&#xf26c;" 
d="M255.787 52.4805l157.439 122.453l34.7734 -27.0938l-192 -149.333l-192 149.333l34.5596 26.8799zM256 106.667l-157.227 122.239l-34.7734 27.0938l192 149.333l192 -149.333l-34.9863 -27.0938z" />
    <glyph glyph-name="uniF302" unicode="&#xf302;" 
d="M170.667 341.333l234.666 -149.333l-234.666 -149.333v298.666z" />
    <glyph glyph-name="uniF18D" unicode="&#xf18d;" 
d="M256 405.333c117.76 0 213.333 -95.5732 213.333 -213.333s-95.5732 -213.333 -213.333 -213.333s-213.333 95.5732 -213.333 213.333s95.5732 213.333 213.333 213.333zM352 106.667c29.4404 0 53.333 23.8926 53.333 53.333s-23.8926 53.333 -53.333 53.333h-10.667
c0 47.1475 -38.1865 85.334 -85.333 85.334c-39.8936 0 -72.96 -27.3066 -82.3467 -64.2139l-2.98633 0.213867c-35.4141 0 -64 -28.5869 -64 -64c0 -35.4141 28.5859 -64 64 -64h181.333z" />
    <glyph glyph-name="uniF2BB" unicode="&#xf2bb;" 
d="M85.333 320v-298.667h298.667v-42.666h-298.667c-23.4668 0 -42.666 19.1992 -42.666 42.666v298.667h42.666zM426.667 405.333c23.4668 0 42.666 -19.1992 42.666 -42.666v-256c0 -23.4668 -19.1992 -42.667 -42.666 -42.667h-256
c-23.4668 0 -42.667 19.2002 -42.667 42.667v256c0 23.4668 19.2002 42.666 42.667 42.666h256zM405.333 213.333v42.667h-85.333v85.333h-42.667v-85.333h-85.333v-42.667h85.333v-85.333h42.667v85.333h85.333z" />
    <glyph glyph-name="uniF1C5" unicode="&#xf1c5;" 
d="M256 405.333c117.76 0 213.333 -95.5732 213.333 -213.333s-95.5732 -213.333 -213.333 -213.333s-213.333 95.5732 -213.333 213.333s95.5732 213.333 213.333 213.333zM256 21.333c39.4668 0 75.7334 13.4404 104.533 36.0537l-239.146 239.146
c-22.6133 -28.7998 -36.0537 -65.0664 -36.0537 -104.533c0 -94.293 76.374 -170.667 170.667 -170.667zM390.613 87.4668c22.6133 28.7998 36.0537 65.0664 36.0537 104.533c0 94.293 -76.374 170.667 -170.667 170.667c-39.4668 0 -75.7334 -13.4404 -104.533 -36.0537z
" />
    <glyph glyph-name="uniF33F" unicode="&#xf33f;" 
d="M42.8799 0l-0.212891 149.333l320 42.667l-320 42.667l0.212891 149.333l447.787 -192z" />
    <glyph glyph-name="uniF3B4" unicode="&#xf3b4;" 
d="M247.68 171.307c3.41406 -5.33301 5.76074 -10.8799 7.4668 -16.2129c1.49316 -5.97363 2.34668 -12.1602 2.34668 -18.3467c0 -11.7334 -2.13281 -22.4004 -6.39941 -31.5742c-4.2666 -9.38574 -10.2402 -17.0664 -17.9209 -23.4658
c-7.46582 -6.40039 -16.4258 -11.3066 -26.8799 -14.5068c-10.4531 -3.2002 -21.5459 -4.90723 -33.7061 -4.90723c-11.0938 0 -21.5469 1.49414 -31.5732 4.48047c-10.0273 2.98633 -18.7734 7.4668 -26.4541 13.4395c-7.67969 5.97363 -13.8662 13.4404 -18.3467 22.4004
c-4.47949 8.95996 -6.82617 19.2002 -6.82617 30.9336h42.4531c0 -5.54688 1.06641 -10.667 2.9873 -15.3604c1.91992 -4.69336 4.69238 -8.5332 8.31934 -11.9463s7.89355 -5.97363 13.0137 -7.68066c5.12012 -1.91992 10.8799 -2.77246 17.0664 -2.77246
c13.0137 0 23.4668 3.41309 30.9336 10.4531s11.3066 17.0664 11.3066 30.293c0 7.04004 -1.28027 13.4404 -3.41309 18.5605c-2.13379 5.33301 -5.33398 9.59961 -9.38672 13.0127c-4.05371 3.41309 -8.95996 5.75977 -14.7207 7.4668
c-5.75977 1.49316 -12.1592 2.34668 -19.4131 2.34668h-25.1729v33.4932h24.96c7.25293 0 13.6533 0.853516 18.9863 2.77344s9.81348 4.48047 13.4404 7.89355c3.62598 3.41309 6.39941 7.4668 8.10645 12.1602c1.70605 4.69336 2.55957 10.0264 2.55957 15.7861
c0 12.1602 -2.98633 21.5469 -9.38672 28.1602c-6.39941 6.61328 -16 10.0264 -29.0127 10.0264c-5.76074 0 -10.8799 -0.852539 -15.5732 -2.55957s-8.74707 -4.05371 -12.374 -7.04004c-3.41309 -2.98633 -6.18652 -6.82617 -8.10645 -11.0938
c-1.91992 -4.2666 -2.98633 -9.17285 -2.98633 -14.7197h-42.2402c0 9.81348 1.91992 19.2002 6.18652 27.5205c3.83984 8.5332 9.59961 15.7861 16.6396 21.9727c7.04004 6.1875 15.5742 11.0938 25.6006 14.7207c9.81348 3.41309 20.6934 5.12012 32.4268 5.12012
c11.9463 0 23.04 -1.49414 32.6396 -4.26758c10.0264 -2.98633 18.5605 -7.67969 25.6006 -13.6533c7.25293 -6.18652 12.7998 -13.6533 16.6396 -22.6133c4.05273 -8.95996 5.97363 -19.4131 5.97363 -31.1465c0 -5.12012 -0.640625 -10.4531 -2.34668 -15.5732
c-1.49414 -5.33301 -4.05371 -10.2402 -7.25391 -15.1465s-7.25293 -9.38672 -12.1602 -13.6533c-4.90625 -4.2666 -10.666 -7.67969 -17.0664 -10.667c7.89355 -2.77344 14.5068 -6.18652 19.8398 -10.2402c5.54688 -4.05273 9.81348 -8.74609 13.2266 -13.8662z
M445.227 141.44c3.2002 -5.97363 4.69336 -13.2275 5.12012 -21.7607c0 -8.31934 -1.70703 -15.7861 -5.33301 -22.6133c-3.62695 -6.82617 -8.5332 -12.7998 -15.1475 -17.7061c-6.61328 -4.90723 -14.5059 -8.74707 -23.6797 -11.5205
c-9.17285 -2.77344 -19.4131 -4.05273 -30.7197 -4.05273c-12.7998 0 -23.8936 1.70605 -33.707 5.33301s-17.9199 8.32031 -24.5332 14.0801c-6.61328 5.97266 -11.5195 12.5869 -14.9336 19.8398c-3.41309 7.25293 -5.12012 14.7197 -5.12012 22.4004h40.3203
c0.213867 -5.54688 1.49316 -10.4541 3.83984 -14.2939s5.12012 -7.04004 8.74707 -9.38672c3.41309 -2.34668 7.4668 -4.05273 11.9463 -5.12012c4.48047 -1.2793 8.95996 -1.70605 13.6533 -1.70605c10.8799 0 19.2002 1.91992 24.96 6.18652
c5.76074 4.2666 8.5332 9.59961 8.5332 16.4268c0 2.98633 -0.425781 5.75977 -1.49316 8.31934c-1.06641 2.56055 -2.98633 5.12012 -5.75977 7.25391c-2.98633 2.13281 -7.04004 4.2666 -12.1602 6.18652s-11.9463 3.83984 -20.2666 5.54688
c-9.81348 2.13281 -18.9863 4.69336 -27.0928 7.67969c-8.10742 3.2002 -15.1475 6.82715 -20.9072 11.3066c-5.75977 4.48047 -10.4531 9.60059 -13.6533 15.5732c-3.2002 5.97363 -4.90625 12.7998 -4.90625 20.4805c0 7.67969 1.49316 14.7197 4.90625 21.5469
c3.41309 6.82617 8.10645 12.7998 14.2939 17.9199c6.18652 5.12012 13.8662 9.17285 22.6133 12.1592c8.74609 2.9873 18.7725 4.48047 29.6533 4.48047c11.5195 0 21.9727 -1.49316 31.1465 -4.69336c9.17285 -3.2002 16.8535 -7.25293 23.2529 -12.5869
c6.40039 -5.33301 11.3066 -11.5195 14.7197 -18.7734c3.41406 -7.25293 5.12012 -14.9326 5.12012 -23.2529h-41.5996c0 3.62695 -0.853516 7.04004 -2.13379 10.4531c-1.49316 3.41309 -3.41309 6.40039 -6.18652 8.95996
c-2.77344 2.56055 -6.18652 4.69336 -10.2393 6.18652c-4.05371 1.49414 -8.74707 2.34668 -14.0801 2.34668c-5.12012 0 -9.81348 -0.639648 -13.6533 -1.91992c-3.84082 -1.2793 -7.04004 -2.98633 -9.60059 -5.12012
c-2.55957 -1.91992 -4.47949 -4.47949 -5.75977 -7.25293s-1.91992 -5.54688 -1.91992 -8.74707c0 -3.19922 0.639648 -5.97266 1.70605 -8.31934c1.06738 -2.34668 2.9873 -4.48047 5.97363 -6.40039c2.9873 -1.91992 6.82715 -3.62695 11.7334 -5.33301
c4.90723 -1.70703 11.0938 -3.41309 18.5605 -4.90723c10.666 -2.34668 20.2666 -5.12012 28.7998 -8.10645s15.5732 -6.82617 21.5469 -11.3066c5.97266 -4.47949 10.4531 -9.81348 13.4395 -15.7861z" />
    <glyph glyph-name="uniF3DE" unicode="&#xf3de;" 
d="M426.667 405.333c23.4668 0 42.666 -19.1992 42.666 -42.666v-256c0 -23.4668 -19.1992 -42.667 -42.666 -42.667h-298.667l-85.333 -85.333l0.212891 384c0 23.4668 18.9863 42.666 42.4531 42.666h341.334zM384 149.333v170.667l-85.333 -68.2666v68.2666h-170.667
v-170.667h170.667v68.2666z" />
    <glyph glyph-name="uniF10C" unicode="&#xf10c;" 
d="M168.106 375.68l-97.9199 -82.1328l-27.5195 32.6396l98.1328 82.1338zM469.333 325.974l-27.5195 -32.6406l-98.1338 82.3467l27.5205 32.6406zM256 362.667c106.026 0 192 -85.9736 192 -192c0 -106.027 -85.9736 -192 -192 -192c-106.24 0 -192 85.9727 -192 192
c0 106.026 85.9736 192 192 192zM256 21.333c82.5596 0 149.333 66.7734 149.333 149.334c0 82.5596 -66.7734 149.333 -149.333 149.333s-149.333 -66.7734 -149.333 -149.333c0 -82.5605 66.7734 -149.334 149.333 -149.334zM277.333 256v-64h64v-42.667h-64v-64h-42.666
v64h-64v42.667h64v64h42.666z" />
    <glyph glyph-name="uniF217" unicode="&#xf217;" 
d="M128 298.667v-213.334h53.333l-74.666 -74.666l-74.667 74.666h53.333v213.334h-53.333l74.667 74.666l74.666 -74.666h-53.333zM213.333 341.333h256v-42.666h-256v42.666zM213.333 42.667v42.666h256v-42.666h-256zM213.333 170.667v42.666h256v-42.666h-256z" />
    <glyph glyph-name="uniF35A" unicode="&#xf35a;" 
d="M42.667 -21.333l426.666 426.666v-426.666h-426.666zM298.667 234.667v-256h-256z" />
    <glyph glyph-name="uniF26D" unicode="&#xf26d;" 
d="M422.613 128.213l-30.5068 30.5068l25.3867 19.627l30.5068 -30.5068zM413.014 228.906l-51.2002 -40.1064l-167.894 168.106l62.0801 48.4268l192 -149.333zM69.7598 426.667l399.573 -399.573l-27.0928 -27.0938l-80.6406 80.6396l-105.6 -82.1328l-192 149.333
l34.7734 26.8799l157.227 -122.239l75.3066 58.4531l-30.5068 30.5068l-44.7998 -34.7734l-157.227 122.239l-34.7734 27.0938l68.6934 53.5469l-90.0264 90.0264z" />
    <glyph glyph-name="uniF37B" unicode="&#xf37b;" 
d="M362.667 426.453c23.4668 0 42.666 -18.9863 42.666 -42.4531v-384c0 -23.4668 -19.1992 -42.667 -42.666 -42.667h-213.334c-23.4668 0 -42.666 19.2002 -42.666 42.667v384c0 23.4668 19.1992 42.667 42.666 42.667zM362.667 42.667v298.666h-213.334v-298.666h213.334
z" />
    <glyph glyph-name="uniF296" unicode="&#xf296;" 
d="M446.72 213.333h43.9473v-42.666h-43.9473c-9.81348 -88.96 -80.4268 -159.573 -169.387 -169.387v-43.9473h-42.666v43.9473c-88.96 9.81348 -159.573 80.4268 -169.387 169.387h-43.9473v42.666h43.9473c9.81348 88.96 80.4268 159.573 169.387 169.387v43.9473h42.666
v-43.9473c88.96 -9.81348 159.573 -80.4268 169.387 -169.387zM256 42.667c82.5596 0 149.333 66.7734 149.333 149.333s-66.7734 149.333 -149.333 149.333s-149.333 -66.7734 -149.333 -149.333s66.7734 -149.333 149.333 -149.333z" />
    <glyph glyph-name="uniF371" unicode="&#xf371;" 
d="M477.342 290.462h-83.4961v-103.976l-137.648 -171.521l-0.197266 -0.196289l-0.197266 0.393555l-247.532 308.382c9.45215 7.08887 104.764 85.0703 247.729 85.0703s238.277 -77.9814 247.926 -85.0703zM433.23 14.7695v39.3848h39.3848v-39.3848h-39.3848z
M433.23 251.077h39.3848v-157.539h-39.3848v157.539z" />
    <glyph glyph-name="uniF10D" unicode="&#xf10d;" 
d="M405.333 384c23.4668 0 42.667 -19.2002 42.667 -42.667v-298.666c0 -23.4668 -19.2002 -42.667 -42.667 -42.667h-298.666c-23.6807 0 -42.667 19.2002 -42.667 42.667v298.666c0 23.4668 18.9863 42.667 42.667 42.667h298.666zM362.667 170.667v42.666h-85.334v85.334
h-42.666v-85.334h-85.334v-42.666h85.334v-85.334h42.666v85.334h85.334z" />
    <glyph glyph-name="uniF2F9" unicode="&#xf2f9;" 
d="M85.333 320v-234.667h213.334v-64h-298.667v64h42.667v234.667c0 23.4668 19.1992 42.667 42.666 42.667h384v-42.667h-384zM490.667 277.333c11.7334 0 21.333 -9.59961 21.333 -21.333v-213.333c0 -11.7334 -9.59961 -21.334 -21.333 -21.334h-128
c-11.7334 0 -21.334 9.60059 -21.334 21.334v213.333c0 11.7334 9.60059 21.333 21.334 21.333h128zM469.333 85.333v149.334h-85.333v-149.334h85.333z" />
    <glyph glyph-name="uniF283" unicode="&#xf283;" 
d="M405.333 320c23.4668 0 42.667 -19.2002 42.667 -42.667v-256c0 -23.4668 -19.2002 -42.666 -42.667 -42.666h-298.666c-23.4668 0 -42.667 19.1992 -42.667 42.666l0.212891 256c0 23.4668 18.9873 42.667 42.4541 42.667h42.666
c0 58.8799 47.7871 106.667 106.667 106.667s106.667 -47.7871 106.667 -106.667h42.666zM256 384c-35.4131 0 -64 -28.5869 -64 -64h128c0 35.4131 -28.5869 64 -64 64zM256 170.667c58.8799 0 106.667 47.7861 106.667 106.666h-42.667c0 -35.4131 -28.5869 -64 -64 -64
s-64 28.5869 -64 64h-42.667c0 -58.8799 47.7871 -106.666 106.667 -106.666z" />
    <glyph glyph-name="uniF3E3" unicode="&#xf3e3;" 
d="M64 256h85.333l106.667 106.667v-341.334l-106.667 106.667h-85.333v128zM352 192c0 -37.7598 -21.7598 -70.1865 -53.333 -85.7598v171.733c31.5732 -15.7871 53.333 -48.2139 53.333 -85.9736zM298.667 379.094c85.5459 -19.4141 149.333 -95.7871 149.333 -187.094
s-63.7871 -167.68 -149.333 -187.094v43.9473c61.6533 18.3467 106.666 75.5195 106.666 143.146s-45.0127 124.8 -106.666 143.146v43.9473z" />
    <glyph glyph-name="uniF3EB" unicode="&#xf3eb;" 
d="M146.134 178.134l24.5332 77.8662l24.5332 -77.8662h-49.0664zM469.333 298.667h38.4004l-43.7334 -192h-37.333l-32 130.133l-32 -130.133h-37.334l-2.13281 9.17285c-27.9473 -55.8936 -85.7598 -94.5068 -152.533 -94.5068
c-94.2939 0 -170.667 76.374 -170.667 170.667s76.373 170.667 170.667 170.667c53.9727 0 101.76 -24.96 133.12 -64h16.2129l25.8135 -134.187l31.7861 134.187h34.1338l32 -134.187zM219.733 106.667h40.5332l-68.2666 192h-42.667l-68.2666 -192h40.5332l14.9336 42.666
h68.2666z" />
    <glyph glyph-name="uniF224" unicode="&#xf224;" 
d="M106.667 106.667v42.666h106.666v-106.666h-42.666v64h-64zM170.667 277.333v64h42.666v-106.666h-106.666v42.666h64zM298.667 42.667v106.666h106.666v-42.666h-64v-64h-42.666zM341.333 277.333h64v-42.666h-106.666v106.666h42.666v-64z" />
    <glyph glyph-name="uniF18F" unicode="&#xf18f;" 
d="M412.8 233.813c55.4668 -3.83984 99.2002 -49.4932 99.2002 -105.813c0 -58.8799 -47.7871 -106.667 -106.667 -106.667h-277.333c-70.6133 0 -128 57.3867 -128 128c0 65.9199 49.9199 120.32 114.134 127.147c26.666 51.1992 80.2129 86.1865 141.866 86.1865
c77.6533 0 142.293 -55.2539 156.8 -128.854zM362.667 170.667h-64v85.333h-85.334v-85.333h-64l106.667 -106.667z" />
    <glyph glyph-name="uniF2F3" unicode="&#xf2f3;" 
d="M384 213.333v64h-85.333v85.334h85.333v64l106.667 -106.667zM426.667 117.333c11.7334 0 21.333 -9.59961 21.333 -21.333v-74.667c0 -11.7334 -9.59961 -21.333 -21.333 -21.333c-200.32 0 -362.667 162.347 -362.667 362.667c0 11.7334 9.59961 21.333 21.333 21.333
h74.667c11.7334 0 21.333 -9.59961 21.333 -21.333c0 -26.667 4.2666 -52.2666 12.1602 -76.1602c2.34668 -7.4668 0.640625 -15.7871 -5.33301 -21.334l-46.9336 -47.1465c30.7197 -60.5859 80.2139 -109.866 140.587 -140.586l46.9336 46.9326
c5.97266 5.76074 14.293 7.4668 21.7598 5.12012c23.8936 -7.89355 49.4932 -12.1602 76.1602 -12.1602z" />
    <glyph glyph-name="uniF367" unicode="&#xf367;" 
d="M256.213 -10.4531l-0.212891 -0.213867l-0.212891 0.213867l-248.107 309.12c9.60059 7.25293 104.96 85.333 248.32 85.333c143.146 0 238.72 -78.0801 248.32 -85.333zM102.187 180.906c7.67969 5.97363 66.3467 53.7607 153.813 53.7607
s146.134 -47.7871 153.813 -53.5469l-153.601 -191.573l-0.212891 -0.213867h-0.212891z" />
    <glyph glyph-name="uniF26A" unicode="&#xf26a;" 
d="M426.667 64h85.333v-42.667h-512v42.667h85.333v21.333c-23.4668 0 -42.666 19.2002 -42.666 42.667v213.333c0 23.4668 19.1992 42.667 42.666 42.667h341.334c23.4668 0 42.666 -19.2002 42.666 -42.667l-0.212891 -213.333
c0 -23.4668 -18.9863 -42.667 -42.4531 -42.667v-21.333zM85.333 341.333v-213.333h341.334v213.333h-341.334z" />
    <glyph glyph-name="uniF32F" unicode="&#xf32f;" 
d="M256 405.333c82.5596 0 149.333 -66.7734 149.333 -149.333c0 -112 -149.333 -277.333 -149.333 -277.333s-149.333 165.333 -149.333 277.333c0 82.5596 66.7734 149.333 149.333 149.333zM256 202.667c29.4404 0 53.333 23.8926 53.333 53.333
s-23.8926 53.333 -53.333 53.333s-53.333 -23.8926 -53.333 -53.333s23.8926 -53.333 53.333 -53.333z" />
    <glyph glyph-name="uniF35C" unicode="&#xf35c;" 
d="M42.667 -21.333l426.666 426.666v-426.666h-426.666z" />
    <glyph glyph-name="uniF335" unicode="&#xf335;" 
d="M106.667 166.827l149.333 -81.4941l149.333 81.4941v-85.334l-149.333 -81.4932l-149.333 81.4932v85.334zM256 384l234.667 -128v-170.667h-42.667v147.414l-192 -104.747l-234.667 128z" />
    <glyph glyph-name="uniF30F" unicode="&#xf30f;" 
d="M256 405.333c117.76 0 213.333 -95.5732 213.333 -213.333s-95.5732 -213.333 -213.333 -213.333s-213.333 95.5732 -213.333 213.333s95.5732 213.333 213.333 213.333zM234.667 22.8271v41.1729c-23.4668 0 -42.667 19.2002 -42.667 42.667v21.333l-102.187 102.187
c-2.77344 -12.373 -4.48047 -24.96 -4.48047 -38.1865c0 -87.04 65.0674 -158.72 149.334 -169.173zM381.866 77.0137c27.7334 30.293 44.8008 70.6133 44.8008 114.986c0 71.4668 -44.1602 132.693 -106.667 158.08v-8.74707c0 -23.4668 -19.2002 -42.666 -42.667 -42.666
h-42.666v-42.667c0 -11.7334 -9.60059 -21.333 -21.334 -21.333h-42.666v-42.667h128c11.7334 0 21.333 -9.59961 21.333 -21.333v-64h21.333c19.2002 0 34.9873 -12.374 40.5332 -29.6533z" />
    <glyph glyph-name="uniF27F" unicode="&#xf27f;" 
d="M405.333 384c23.4668 0 42.667 -19.2002 42.667 -42.667v-298.666c0 -23.4668 -19.2002 -42.667 -42.667 -42.667h-298.666c-23.4668 0 -42.667 19.2002 -42.667 42.667l0.212891 298.666c0 23.4668 18.9873 42.667 42.4541 42.667h298.666zM384 149.333v85.334h-85.333
v85.333h-85.334v-85.333h-85.333v-85.334h85.333v-85.333h85.334v85.333h85.333z" />
    <glyph glyph-name="uniF12D" unicode="&#xf12d;" 
d="M251.733 215.467c48.4268 -12.5869 100.267 -33.2803 100.267 -93.8672c0 -43.7334 -33.0664 -67.8398 -74.667 -75.7334v-45.8662h-64v46.293c-40.96 8.74707 -75.9463 34.9873 -78.5059 81.707h46.9326c2.34668 -25.1729 19.627 -44.7998 63.5732 -44.7998
c47.1475 0 57.6006 23.4668 57.6006 38.1865c0 19.8398 -10.667 38.6133 -64 51.4131c-59.5205 14.2939 -100.267 38.8271 -100.267 88.1064c0 41.1738 33.2793 68.0537 74.666 77.0137v46.0801h64v-46.7197c44.5869 -10.8799 66.9873 -44.5869 68.4805 -81.2803h-47.1465
c-1.28027 26.667 -15.3604 44.7998 -53.334 44.7998c-36.0527 0 -57.5996 -16.2129 -57.5996 -39.4668c0 -20.2666 15.5732 -33.2793 64 -45.8662z" />
    <glyph glyph-name="uniF272" unicode="&#xf272;" 
d="M64 170.667v42.666h42.667v-42.666h-42.667zM64 85.333v42.667h42.667v-42.667h-42.667zM64 256v42.667h42.667v-42.667h-42.667zM149.333 170.667v42.666h298.667v-42.666h-298.667zM149.333 85.333v42.667h298.667v-42.667h-298.667zM149.333 298.667h298.667v-42.667
h-298.667v42.667z" />
    <glyph glyph-name="uniF127" unicode="&#xf127;" 
d="M405.333 384c23.4668 0 42.667 -19.2002 42.667 -42.667v-298.666c0 -23.4668 -19.2002 -42.667 -42.667 -42.667h-298.666c-23.4668 0 -42.667 19.2002 -42.667 42.667v298.666c0 23.4668 19.2002 42.667 42.667 42.667h89.1729
c8.95996 24.7471 32.4268 42.667 60.1602 42.667s51.2002 -17.9199 60.1602 -42.667h89.1729zM277.333 64v42.667h-42.666v-42.667h42.666zM277.333 149.333v128h-42.666v-128h42.666zM256 341.333c11.7334 0 21.333 9.60059 21.333 21.334s-9.59961 21.333 -21.333 21.333
s-21.333 -9.59961 -21.333 -21.333s9.59961 -21.334 21.333 -21.334z" />
    <glyph glyph-name="uniF112" unicode="&#xf112;" 
d="M256 405.333c117.547 0 213.333 -95.7861 213.333 -213.333s-95.7861 -213.333 -213.333 -213.333s-213.333 95.7861 -213.333 213.333s95.7861 213.333 213.333 213.333zM256 21.333c94.0801 0 170.667 76.5869 170.667 170.667s-76.5869 170.667 -170.667 170.667
s-170.667 -76.5869 -170.667 -170.667s76.5869 -170.667 170.667 -170.667zM320 192c0 -35.4131 -28.5869 -64 -64 -64s-64 28.5869 -64 64s28.5869 64 64 64s64 -28.5869 64 -64z" />
    <glyph glyph-name="uniF210" unicode="&#xf210;" 
d="M69.7598 341.333l5.97363 -5.75977l308.267 -308.479l-27.0938 -27.0938l-120.746 120.747l-33.4932 -78.0801h-64l52.6934 122.88l-148.693 148.693zM128 341.333h298.667v-64h-123.521l-34.3467 -80.6396l-44.7998 44.7998l15.3604 35.8398h-51.2002l-60.1602 60.1602
v3.83984z" />
    <glyph glyph-name="uniF184" unicode="&#xf184;" 
d="M256 405.333c117.76 0 213.333 -95.5732 213.333 -213.333s-95.5732 -213.333 -213.333 -213.333s-213.333 95.5732 -213.333 213.333s95.5732 213.333 213.333 213.333zM213.333 85.333l192 192l-30.0801 30.2939l-161.92 -161.92l-76.5859 76.373l-30.0801 -30.0801z
" />
    <glyph glyph-name="uniF293" unicode="&#xf293;" 
d="M405.333 405.333c23.4668 0 42.667 -19.1992 42.667 -42.666v-298.667c0 -23.4668 -19.2002 -42.667 -42.667 -42.667h-85.333l-64 -64l-64 64h-85.333c-23.6807 0 -42.667 19.2002 -42.667 42.667v298.667c0 23.4668 18.9863 42.666 42.667 42.666h298.666zM256 334.934
c-31.7871 0 -57.5996 -25.8135 -57.5996 -57.6006c0 -31.7861 25.8125 -57.5996 57.5996 -57.5996s57.5996 25.8135 57.5996 57.5996c0 31.7871 -25.8125 57.6006 -57.5996 57.6006zM384 106.667v19.1992c0 42.667 -85.333 66.1338 -128 66.1338
s-128 -23.4668 -128 -66.1338v-19.1992h256z" />
    <glyph glyph-name="uniF250" unicode="&#xf250;" 
d="M83.2002 192c0 -36.4805 29.6533 -66.1338 66.1328 -66.1338h85.334v-40.5332h-85.334c-58.8799 0 -106.666 47.7871 -106.666 106.667s47.7861 106.667 106.666 106.667h85.334v-40.5332h-85.334c-36.4795 0 -66.1328 -29.6533 -66.1328 -66.1338zM170.667 170.667
v42.666h170.666v-42.666h-170.666zM362.667 298.667c58.8799 0 106.666 -47.7871 106.666 -106.667s-47.7861 -106.667 -106.666 -106.667h-85.334v40.5332h85.334c36.4795 0 66.1328 29.6533 66.1328 66.1338s-29.6533 66.1338 -66.1328 66.1338h-85.334v40.5332h85.334z
" />
    <glyph glyph-name="uniF282" unicode="&#xf282;" 
d="M256 201.6c50.3467 46.9336 117.76 75.7334 192 75.7334v-234.666c-74.2402 0 -141.653 -29.0137 -192 -75.7334c-50.3467 46.9326 -117.76 75.7334 -192 75.7334v234.666c74.2402 0 141.653 -28.7998 192 -75.7334zM256 277.333c-35.4131 0 -64 28.5869 -64 64
c0 35.4141 28.5869 64 64 64s64 -28.5859 64 -64c0 -35.4131 -28.5869 -64 -64 -64z" />
    <glyph glyph-name="uniF39C" unicode="&#xf39c;" 
d="M256 362.667c94.293 0 170.667 -76.374 170.667 -170.667c0 -33.4932 -9.81348 -64.6396 -26.4541 -90.8799l-31.1465 31.1465c9.60059 17.707 14.9336 38.1865 14.9336 59.7334c0 70.6133 -57.3867 128 -128 128v-64l-85.333 85.333l85.333 85.334v-64zM256 64v64
l85.333 -85.333l-85.333 -85.334v64c-94.293 0 -170.667 76.374 -170.667 170.667c0 33.4932 9.81348 64.6396 26.4541 90.8799l31.1465 -31.1465c-9.60059 -17.707 -14.9336 -38.1865 -14.9336 -59.7334c0 -70.6133 57.3867 -128 128 -128z" />
    <glyph glyph-name="uniF1A1" unicode="&#xf1a1;" 
d="M362.667 128v170.667h-170.667v42.666h170.667c23.4668 0 42.666 -19.1992 42.666 -42.666v-170.667h-42.666zM149.333 85.333h341.334v-42.666h-85.334v-85.334h-42.666v85.334h-213.334c-23.4668 0 -42.666 19.1992 -42.666 42.666v213.334h-85.334v42.666h85.334
v85.334h42.666v-341.334z" />
    <glyph glyph-name="uniF1ED" unicode="&#xf1ed;" 
d="M448 426.667c23.4668 0 42.667 -19.2002 42.667 -42.667v-298.667c0 -23.4668 -19.2002 -42.666 -42.667 -42.666h-298.667c-23.4668 0 -42.666 19.1992 -42.666 42.666v298.667c0 23.4668 19.1992 42.667 42.666 42.667h298.667zM448 85.333v298.667h-298.667v-298.667
h298.667zM64 341.333v-341.333h341.333v-42.667h-341.333c-23.4668 0 -42.667 19.2002 -42.667 42.667v341.333h42.667zM362.667 170.667c0 -23.6807 -19.2002 -42.667 -42.667 -42.667h-85.333v42.667h85.333v42.666h-85.333v128h128v-42.666h-85.334v-42.667h42.667
c23.4668 0 42.667 -18.9863 42.667 -42.667v-42.666z" />
    <glyph glyph-name="uniF1EC" unicode="&#xf1ec;" 
d="M64 341.333v-341.333h341.333v-42.667h-341.333c-23.4668 0 -42.667 19.2002 -42.667 42.667v341.333h42.667zM320 128v85.333h-85.333v128h42.666v-85.333h42.667v85.333h42.667v-213.333h-42.667zM448 426.667c23.4668 0 42.667 -19.2002 42.667 -42.667v-298.667
c0 -23.4668 -19.2002 -42.666 -42.667 -42.666h-298.667c-23.4668 0 -42.666 19.1992 -42.666 42.666v298.667c0 23.4668 19.1992 42.667 42.666 42.667h298.667zM448 85.333v298.667h-298.667v-298.667h298.667z" />
    <glyph glyph-name="uniF1EF" unicode="&#xf1ef;" 
d="M64 341.333v-341.333h341.333v-42.667h-341.333c-23.4668 0 -42.667 19.2002 -42.667 42.667v341.333h42.667zM448 426.667c23.4668 0 42.667 -19.2002 42.667 -42.667v-298.667c0 -23.4668 -19.2002 -42.666 -42.667 -42.666h-298.667
c-23.4668 0 -42.666 19.1992 -42.666 42.666v298.667c0 23.4668 19.1992 42.667 42.666 42.667h298.667zM448 85.333v298.667h-298.667v-298.667h298.667zM277.333 128h-42.666l85.333 170.667h-85.333v42.666h128v-42.666z" />
    <glyph glyph-name="uniF1EE" unicode="&#xf1ee;" 
d="M64 341.333v-341.333h341.333v-42.667h-341.333c-23.4668 0 -42.667 19.2002 -42.667 42.667v341.333h42.667zM448 426.667c23.4668 0 42.667 -19.2002 42.667 -42.667v-298.667c0 -23.4668 -19.2002 -42.666 -42.667 -42.666h-298.667
c-23.4668 0 -42.666 19.1992 -42.666 42.666v298.667c0 23.4668 19.1992 42.667 42.666 42.667h298.667zM448 85.333v298.667h-298.667v-298.667h298.667zM277.333 128c-23.4668 0 -42.666 18.9863 -42.666 42.667v128c0 23.6797 19.1992 42.666 42.666 42.666h85.334
v-42.666h-85.334v-42.667h42.667c23.4668 0 42.667 -18.9863 42.667 -42.667v-42.666c0 -23.6807 -19.2002 -42.667 -42.667 -42.667h-42.667zM277.333 213.333v-42.666h42.667v42.666h-42.667z" />
    <glyph glyph-name="uniF1E9" unicode="&#xf1e9;" 
d="M64 341.333v-341.333h341.333v-42.667h-341.333c-23.4668 0 -42.667 19.2002 -42.667 42.667v341.333h42.667zM298.667 128v170.667h-42.667v42.666h85.333v-213.333h-42.666zM448 426.667c23.4668 0 42.667 -19.2002 42.667 -42.667v-298.667
c0 -23.4668 -19.2002 -42.666 -42.667 -42.666h-298.667c-23.4668 0 -42.666 19.1992 -42.666 42.666v298.667c0 23.4668 19.1992 42.667 42.666 42.667h298.667zM448 85.333v298.667h-298.667v-298.667h298.667z" />
    <glyph glyph-name="uniF1EB" unicode="&#xf1eb;" 
d="M448 426.667c23.4668 0 42.667 -19.2002 42.667 -42.667v-298.667c0 -23.4668 -19.2002 -42.666 -42.667 -42.666h-298.667c-23.4668 0 -42.666 19.1992 -42.666 42.666v298.667c0 23.4668 19.1992 42.667 42.666 42.667h298.667zM448 85.333v298.667h-298.667v-298.667
h298.667zM64 341.333v-341.333h341.333v-42.667h-341.333c-23.4668 0 -42.667 19.2002 -42.667 42.667v341.333h42.667zM362.667 170.667c0 -23.6807 -19.2002 -42.667 -42.667 -42.667h-85.333v42.667h85.333v42.666h-42.667v42.667h42.667v42.667h-85.333v42.666h85.333
c23.4668 0 42.667 -18.9863 42.667 -42.666v-32c0 -17.707 -14.2939 -32 -32 -32c17.7061 0 32 -14.2939 32 -32v-32z" />
    <glyph glyph-name="uniF19D" unicode="&#xf19d;" 
d="M277.333 298.667v-85.334h85.334v-42.666h-85.334v-85.334h-42.666v85.334h-85.334v42.666h85.334v85.334h42.666zM256 405.333c117.547 0 213.333 -95.7861 213.333 -213.333s-95.7861 -213.333 -213.333 -213.333s-213.333 95.7861 -213.333 213.333
s95.7861 213.333 213.333 213.333zM256 21.333c94.0801 0 170.667 76.5869 170.667 170.667s-76.5869 170.667 -170.667 170.667s-170.667 -76.5869 -170.667 -170.667s76.5869 -170.667 170.667 -170.667z" />
    <glyph glyph-name="uniF314" unicode="&#xf314;" 
d="M320 320v-42.667h-256v42.667h256zM320 234.667v-42.667h-256v42.667h256zM64 106.667v42.666h170.667v-42.666h-170.667zM362.667 320h106.666v-42.667h-64v-192c0 -35.4131 -28.5859 -64 -64 -64c-35.4131 0 -64 28.5869 -64 64c0 35.4141 28.5869 64 64 64
c7.4668 0 14.7207 -1.49316 21.334 -3.83984v174.507z" />
    <glyph glyph-name="uniF3CC" unicode="&#xf3cc;" 
d="M170.667 213.333l85.333 85.334l85.333 -85.334h-64v-213.333h-42.666v213.333h-64zM85.333 384h341.334v-42.667h-341.334v42.667z" />
    <glyph glyph-name="uniF1F1" unicode="&#xf1f1;" 
d="M64 341.333v-341.333h341.333v-42.667h-341.333c-23.4668 0 -42.667 19.2002 -42.667 42.667v341.333h42.667zM448 426.667c23.4668 0 42.667 -19.2002 42.667 -42.667v-298.667c0 -23.4668 -19.2002 -42.666 -42.667 -42.666h-298.667
c-23.4668 0 -42.666 19.1992 -42.666 42.666v298.667c0 23.4668 19.1992 42.667 42.666 42.667h298.667zM448 85.333v298.667h-298.667v-298.667h298.667zM320 341.333c23.4668 0 42.667 -18.9863 42.667 -42.666v-128c0 -23.6807 -19.2002 -42.667 -42.667 -42.667h-85.333
v42.667h85.333v42.666h-42.667c-23.4668 0 -42.666 18.9873 -42.666 42.667v42.667c0 23.6797 19.1992 42.666 42.666 42.666h42.667zM320 256v42.667h-42.667v-42.667h42.667z" />
    <glyph glyph-name="uniF1E3" unicode="&#xf1e3;" 
d="M234.667 64l-181.334 128l181.334 128v-256zM245.333 192l181.334 128v-256z" />
    <glyph glyph-name="uniF185" unicode="&#xf185;" 
d="M328.747 289.92l-97.707 -97.9199l97.707 -97.9199l-30.0801 -30.0801l-128 128l128 128z" />
    <glyph glyph-name="uniF14D" unicode="&#xf14d;" 
d="M106.667 74.667c-17.707 0 -32 14.293 -32 32c0 17.7061 14.293 32 32 32c17.7061 0 32 -14.2939 32 -32c0 -17.707 -14.2939 -32 -32 -32zM192 170.667c-11.7334 0 -21.333 9.59961 -21.333 21.333s9.59961 21.333 21.333 21.333s21.333 -9.59961 21.333 -21.333
s-9.59961 -21.333 -21.333 -21.333zM192 256c-11.7334 0 -21.333 9.59961 -21.333 21.333s9.59961 21.334 21.333 21.334s21.333 -9.60059 21.333 -21.334s-9.59961 -21.333 -21.333 -21.333zM64 0v42.667h384v-42.667h-384zM106.667 245.333c-17.707 0 -32 14.2939 -32 32
c0 17.707 14.293 32 32 32c17.7061 0 32 -14.293 32 -32c0 -17.7061 -14.2939 -32 -32 -32zM106.667 160c-17.707 0 -32 14.293 -32 32s14.293 32 32 32c17.7061 0 32 -14.293 32 -32s-14.2939 -32 -32 -32zM192 85.333c-11.7334 0 -21.333 9.60059 -21.333 21.334
s9.59961 21.333 21.333 21.333s21.333 -9.59961 21.333 -21.333s-9.59961 -21.334 -21.333 -21.334zM362.667 96c-5.97363 0 -10.667 4.69336 -10.667 10.667c0 5.97266 4.69336 10.666 10.667 10.666c5.97266 0 10.666 -4.69336 10.666 -10.666
c0 -5.97363 -4.69336 -10.667 -10.666 -10.667zM64 384h384v-42.667h-384v42.667zM362.667 266.667c-5.97363 0 -10.667 4.69336 -10.667 10.666c0 5.97363 4.69336 10.667 10.667 10.667c5.97266 0 10.666 -4.69336 10.666 -10.667
c0 -5.97266 -4.69336 -10.666 -10.666 -10.666zM362.667 181.333c-5.97363 0 -10.667 4.69336 -10.667 10.667s4.69336 10.667 10.667 10.667c5.97266 0 10.666 -4.69336 10.666 -10.667s-4.69336 -10.667 -10.666 -10.667zM277.333 256
c-11.7334 0 -21.333 9.59961 -21.333 21.333s9.59961 21.334 21.333 21.334s21.334 -9.60059 21.334 -21.334s-9.60059 -21.333 -21.334 -21.333zM277.333 170.667c-11.7334 0 -21.333 9.59961 -21.333 21.333s9.59961 21.333 21.333 21.333s21.334 -9.59961 21.334 -21.333
s-9.60059 -21.333 -21.334 -21.333zM277.333 85.333c-11.7334 0 -21.333 9.60059 -21.333 21.334s9.59961 21.333 21.333 21.333s21.334 -9.59961 21.334 -21.333s-9.60059 -21.334 -21.334 -21.334z" />
    <glyph glyph-name="uniF14C" unicode="&#xf14c;" 
d="M213.333 256c11.7334 0 21.334 -9.59961 21.334 -21.333s-9.60059 -21.334 -21.334 -21.334s-21.333 9.60059 -21.333 21.334s9.59961 21.333 21.333 21.333zM213.333 170.667c11.7334 0 21.334 -9.60059 21.334 -21.334s-9.60059 -21.333 -21.334 -21.333
s-21.333 9.59961 -21.333 21.333s9.59961 21.334 21.333 21.334zM149.333 245.333c5.97363 0 10.667 -4.69336 10.667 -10.666c0 -5.97363 -4.69336 -10.667 -10.667 -10.667c-5.97266 0 -10.666 4.69336 -10.666 10.667c0 5.97266 4.69336 10.666 10.666 10.666z
M213.333 96c5.97363 0 10.667 -4.69336 10.667 -10.667c0 -5.97266 -4.69336 -10.666 -10.667 -10.666c-5.97266 0 -10.666 4.69336 -10.666 10.666c0 5.97363 4.69336 10.667 10.666 10.667zM149.333 160c5.97363 0 10.667 -4.69336 10.667 -10.667
c0 -5.97266 -4.69336 -10.666 -10.667 -10.666c-5.97266 0 -10.666 4.69336 -10.666 10.666c0 5.97363 4.69336 10.667 10.666 10.667zM213.333 288c-5.97266 0 -10.666 4.69336 -10.666 10.667c0 5.97266 4.69336 10.666 10.666 10.666
c5.97363 0 10.667 -4.69336 10.667 -10.666c0 -5.97363 -4.69336 -10.667 -10.667 -10.667zM298.667 256c11.7334 0 21.333 -9.59961 21.333 -21.333s-9.59961 -21.334 -21.333 -21.334s-21.334 9.60059 -21.334 21.334s9.60059 21.333 21.334 21.333zM298.667 288
c-5.97363 0 -10.667 4.69336 -10.667 10.667c0 5.97266 4.69336 10.666 10.667 10.666c5.97266 0 10.666 -4.69336 10.666 -10.666c0 -5.97363 -4.69336 -10.667 -10.666 -10.667zM362.667 160c5.97266 0 10.666 -4.69336 10.666 -10.667
c0 -5.97266 -4.69336 -10.666 -10.666 -10.666c-5.97363 0 -10.667 4.69336 -10.667 10.666c0 5.97363 4.69336 10.667 10.667 10.667zM362.667 245.333c5.97266 0 10.666 -4.69336 10.666 -10.666c0 -5.97363 -4.69336 -10.667 -10.666 -10.667
c-5.97363 0 -10.667 4.69336 -10.667 10.667c0 5.97266 4.69336 10.666 10.667 10.666zM256 405.333c117.76 0 213.333 -95.5732 213.333 -213.333s-95.5732 -213.333 -213.333 -213.333s-213.333 95.5732 -213.333 213.333s95.5732 213.333 213.333 213.333zM256 21.333
c94.293 0 170.667 76.374 170.667 170.667s-76.374 170.667 -170.667 170.667s-170.667 -76.374 -170.667 -170.667s76.374 -170.667 170.667 -170.667zM298.667 96c5.97266 0 10.666 -4.69336 10.666 -10.667c0 -5.97266 -4.69336 -10.666 -10.666 -10.666
c-5.97363 0 -10.667 4.69336 -10.667 10.666c0 5.97363 4.69336 10.667 10.667 10.667zM298.667 170.667c11.7334 0 21.333 -9.60059 21.333 -21.334s-9.59961 -21.333 -21.333 -21.333s-21.334 9.59961 -21.334 21.333s9.60059 21.334 21.334 21.334z" />
    <glyph glyph-name="uniF2FE" unicode="&#xf2fe;" 
d="M469.333 106.667c0 -23.4668 -19.1992 -42.667 -42.666 -42.667h-256c-23.4668 0 -42.667 19.2002 -42.667 42.667v256c0 23.4668 19.2002 42.666 42.667 42.666h256c23.4668 0 42.666 -19.1992 42.666 -42.666v-256zM234.667 192l-64 -85.333h256l-85.334 106.666
l-63.3594 -79.1465zM42.667 320h42.666v-298.667h298.667v-42.666h-298.667c-23.4668 0 -42.666 19.1992 -42.666 42.666v298.667z" />
    <glyph glyph-name="uniF143" unicode="&#xf143;" 
d="M334.293 362.667c15.5732 0 28.374 -12.8008 28.374 -28.374v-327.253c0 -15.5732 -12.8008 -28.373 -28.5869 -28.373h-156.373c-15.5732 0 -28.374 12.7998 -28.374 28.5859v327.04c0 15.5732 12.8008 28.374 28.374 28.374h35.626v42.666h85.334v-42.666h35.626z" />
    <glyph glyph-name="uniF17D" unicode="&#xf17d;" 
d="M21.333 64c35.4141 0 64 -28.5869 64 -64h-64v64zM21.333 149.333c82.5605 0 149.334 -66.7734 149.334 -149.333h-42.667c0 58.8799 -47.7871 106.667 -106.667 106.667v42.666zM405.333 298.667v-213.334h-120.106c-27.3066 84.4805 -94.0801 151.254 -178.56 178.561
v34.7734h298.666zM21.333 234.667c129.494 0 234.667 -104.96 234.667 -234.667h-42.667c0 106.026 -85.9727 192 -192 192v42.667zM448 384c23.4668 0 42.667 -19.2002 42.667 -42.667v-298.666c0 -23.4668 -19.2002 -42.667 -42.667 -42.667h-149.333v42.667h149.333
v298.666h-384v-64h-42.667v64c0 23.4668 19.2002 42.667 42.667 42.667h384z" />
    <glyph glyph-name="uniF15E" unicode="&#xf15e;" 
d="M64 256v42.667h42.667v-42.667h-42.667zM64 341.333v42.667h42.667v-42.667h-42.667zM149.333 0v42.667h42.667v-42.667h-42.667zM149.333 170.667v42.666h42.667v-42.666h-42.667zM64 170.667v42.666h42.667v-42.666h-42.667zM64 0v42.667h42.667v-42.667h-42.667z
M64 85.333v42.667h42.667v-42.667h-42.667zM149.333 341.333v42.667h42.667v-42.667h-42.667zM405.333 85.333v42.667h42.667v-42.667h-42.667zM234.667 0v384h42.666v-384h-42.666zM405.333 0v42.667h42.667v-42.667h-42.667zM405.333 170.667v42.666h42.667v-42.666
h-42.667zM405.333 384h42.667v-42.667h-42.667v42.667zM405.333 256v42.667h42.667v-42.667h-42.667zM320 341.333v42.667h42.667v-42.667h-42.667zM320 0v42.667h42.667v-42.667h-42.667zM320 170.667v42.666h42.667v-42.666h-42.667z" />
    <glyph glyph-name="uniF385" unicode="&#xf385;" 
d="M469.333 250.88l-116.267 -100.906l34.7734 -149.974l-131.84 79.5732l-131.84 -79.5732l34.9863 149.974l-116.479 100.906l153.387 13.0137l59.9463 141.439l59.9463 -141.227zM256 119.467l80.4268 -48.6396l-21.333 91.3066l70.8262 61.4395l-93.4395 8.10645
l-36.4805 86.1865l-36.2666 -85.9727l-93.4404 -8.10645l70.8271 -61.4404l-21.333 -91.3066z" />
    <glyph glyph-name="uniF361" unicode="&#xf361;" 
d="M426.667 64v170.667h42.666v-170.667h-42.666zM426.667 -21.333v42.666h42.666v-42.666h-42.666zM42.667 -21.333l426.666 426.666v-128h-85.333v-298.666h-341.333z" />
    <glyph glyph-name="uniF1A8" unicode="&#xf1a8;" 
d="M405.333 341.333c23.4668 0 42.667 -19.1992 42.667 -42.666v-213.334c0 -23.4668 -19.2002 -42.666 -42.667 -42.666h-298.666c-23.4668 0 -42.667 19.1992 -42.667 42.666v213.334c0 23.4668 19.2002 42.666 42.667 42.666h298.666zM405.333 85.333v213.334h-298.666
v-213.334h298.666z" />
    <glyph glyph-name="uniF1FD" unicode="&#xf1fd;" 
d="M234.667 320c-51.627 0 -94.7207 -36.6934 -104.533 -85.333h-43.0938c10.4531 72.3193 72.3203 128 147.627 128c41.1729 0 78.5059 -16.6406 105.6 -43.7334l43.7334 43.7334v-128h-128l54.1865 54.1865c-19.4131 19.2002 -46.0801 31.1465 -75.5195 31.1465z
M354.986 125.014l103.467 -103.681l-31.7861 -31.7861l-103.681 103.467c-24.7461 -18.1338 -55.2529 -29.0137 -88.3193 -29.0137c-41.1738 0 -78.5068 16.6396 -105.601 43.7334l-43.7334 -43.7334v128h128l-54.1865 -54.1865
c19.4131 -19.2002 46.0801 -31.1465 75.5205 -31.1465c51.626 0 94.7197 36.6934 104.533 85.333h43.0928c-3.41309 -24.96 -13.2266 -47.7871 -27.3066 -66.9863z" />
    <glyph glyph-name="uniF328" unicode="&#xf328;" 
d="M213.333 256c149.334 -21.333 213.334 -128 234.667 -234.667c-53.333 74.667 -128 108.801 -234.667 108.801v-87.4668l-149.333 149.333l149.333 149.333v-85.333z" />
    <glyph glyph-name="uniF363" unicode="&#xf363;" 
d="M426.667 302.293l-280.96 -280.96h280.96v280.96zM469.333 405.333v-426.666h-426.666z" />
    <glyph glyph-name="uniF131" unicode="&#xf131;" 
d="M234.667 85.333c0 11.7334 9.59961 21.334 21.333 21.334s21.333 -9.60059 21.333 -21.334s-9.59961 -21.333 -21.333 -21.333s-21.333 9.59961 -21.333 21.333zM234.667 384h21.333c106.026 0 192 -85.9736 192 -192s-85.9736 -192 -192 -192
c-106.24 0 -192 85.9736 -192 192c0 62.9336 30.293 118.4 77.0137 153.387v0.426758l145.066 -145.066l-30.0801 -30.0801l-115.627 115.626c-21.1201 -25.5996 -33.7061 -58.4531 -33.7061 -94.293c0 -82.5596 66.7734 -149.333 149.333 -149.333
s149.333 66.7734 149.333 149.333c0 75.3066 -55.6797 137.173 -128 147.627v-40.96h-42.666v85.333zM384 192c0 -11.7334 -9.59961 -21.333 -21.333 -21.333s-21.334 9.59961 -21.334 21.333s9.60059 21.333 21.334 21.333s21.333 -9.59961 21.333 -21.333zM128 192
c0 11.7334 9.59961 21.333 21.333 21.333s21.334 -9.59961 21.334 -21.333s-9.60059 -21.333 -21.334 -21.333s-21.333 9.59961 -21.333 21.333z" />
    <glyph glyph-name="uniF2E6" unicode="&#xf2e6;" 
d="M405.333 384c23.4668 0 42.667 -19.2002 42.667 -42.667v-298.666c0 -23.4668 -19.2002 -42.667 -42.667 -42.667h-298.666c-23.6807 0 -42.667 19.2002 -42.667 42.667v298.666c0 23.4668 18.9863 42.667 42.667 42.667h21.333v42.667h42.667v-42.667h170.666v42.667
h42.667v-42.667h21.333zM256 320c-35.4131 0 -64 -28.5869 -64 -64s28.5869 -64 64 -64s64 28.5869 64 64s-28.5869 64 -64 64zM384 64v21.333c0 42.667 -85.333 66.1338 -128 66.1338s-128 -23.4668 -128 -66.1338v-21.333h256z" />
    <glyph glyph-name="uniF261" unicode="&#xf261;" 
d="M247.253 289.92l30.0801 30.0801l128 -128l-128 -128l-30.293 30.0801l76.5869 76.5869h-302.294v42.666h302.294zM426.667 320h42.666v-256h-42.666v256z" />
    <glyph glyph-name="uniF25B" unicode="&#xf25b;" 
d="M158.08 119.253l-30.0801 30.0801l128 128l128 -128l-30.0801 -30.0801l-97.9199 97.707z" />
    <glyph glyph-name="uniF24B" unicode="&#xf24b;" 
d="M405.333 384c23.4668 0 42.667 -19.2002 42.667 -42.667v-298.666c0 -23.4668 -19.2002 -42.667 -42.667 -42.667h-298.666c-23.4668 0 -42.667 19.2002 -42.667 42.667v298.666c0 23.4668 19.2002 42.667 42.667 42.667h298.666zM192 85.333v149.334h-42.667v-149.334
h42.667zM277.333 85.333v213.334h-42.666v-213.334h42.666zM362.667 85.333v85.334h-42.667v-85.334h42.667z" />
    <glyph glyph-name="uniF1D9" unicode="&#xf1d9;" 
d="M256 215.467c13.0137 0 23.4668 -10.4531 23.4668 -23.4668s-10.4531 -23.4668 -23.4668 -23.4668s-23.4668 10.4531 -23.4668 23.4668s10.4531 23.4668 23.4668 23.4668zM256 405.333c117.76 0 213.333 -95.5732 213.333 -213.333s-95.5732 -213.333 -213.333 -213.333
s-213.333 95.5732 -213.333 213.333s95.5732 213.333 213.333 213.333zM302.72 145.28l81.2803 174.72l-174.72 -81.2803l-81.2803 -174.72z" />
    <glyph glyph-name="uniF2DF" unicode="&#xf2df;" 
d="M128 42.667v298.666h85.333v-298.666h-85.333zM298.667 341.333h85.333v-298.666h-85.333v298.666z" />
    <glyph glyph-name="uniF23B" unicode="&#xf23b;" 
d="M378.24 191.573l85.1201 -84.9062c8.31934 -8.32031 8.31934 -21.7607 0 -30.0801l-92.5869 -92.5869c-4.2666 -4.05371 -9.60059 -6.18652 -15.1465 -6.18652c-5.54688 0 -10.8799 1.91992 -15.1465 6.18652l-84.9072 84.9062l-84.9062 -84.9062
c-8.32031 -8.32031 -21.7607 -8.32031 -30.0801 0l-92.5869 92.5869c-8.32031 8.31934 -8.32031 21.7598 0 30.0801l84.9062 84.9062l-84.9062 84.9072c-8.32031 8.31934 -8.32031 21.7598 0 30.0791l92.5869 92.5869c4.05273 4.05371 9.59961 6.18652 14.9326 6.18652
c5.54688 0 10.8809 -2.13281 15.1475 -6.18652l84.9062 -84.9062l84.9072 84.9062c8.31934 8.32031 21.7598 8.32031 30.0791 0l92.5869 -92.5869c8.32031 -8.31934 8.32031 -21.7598 0 -30.0791zM256 256c-11.7334 0 -21.333 -9.59961 -21.333 -21.333
s9.59961 -21.334 21.333 -21.334s21.333 9.60059 21.333 21.334s-9.59961 21.333 -21.333 21.333zM155.52 214.187l77.2275 77.4404l-77.2275 77.2266l-77.4395 -77.4404zM213.333 170.667c11.7334 0 21.334 9.59961 21.334 21.333s-9.60059 21.333 -21.334 21.333
s-21.333 -9.59961 -21.333 -21.333s9.59961 -21.333 21.333 -21.333zM256 128c11.7334 0 21.333 9.59961 21.333 21.333s-9.59961 21.334 -21.333 21.334s-21.333 -9.60059 -21.333 -21.334s9.59961 -21.333 21.333 -21.333zM298.667 213.333
c-11.7334 0 -21.334 -9.59961 -21.334 -21.333s9.60059 -21.333 21.334 -21.333s21.333 9.59961 21.333 21.333s-9.59961 21.333 -21.333 21.333zM355.413 14.0801l77.2266 77.4395l-77.2266 77.2275l-77.4395 -77.4404z" />
    <glyph glyph-name="uniF137" unicode="&#xf137;" 
d="M362.667 334.293v-120.96h-213.334v120.96c0 15.5732 12.8008 28.374 28.374 28.374h35.626v42.666h85.334v-42.666h35.626c15.5732 0 28.374 -12.8008 28.374 -28.374zM149.333 213.333h213.334v-206.293c0 -15.5732 -12.8008 -28.373 -28.5869 -28.373h-156.373
c-15.5732 0 -28.374 12.7998 -28.374 28.373v206.293z" />
    <glyph glyph-name="uniF382" unicode="&#xf382;" 
d="M265.6 106.667l-24.3193 64h-120.32l-23.8936 -64h-44.5859l109.013 277.333h39.6797l109.014 -277.333h-44.5869zM137.173 213.333h88.3203l-44.1602 117.761zM460.587 200.747l30.0801 -30.0801l-202.454 -202.667l-108.586 108.587l30.0801 30.0801l78.293 -78.5068z
" />
    <glyph glyph-name="uniF24E" unicode="&#xf24e;" 
d="M255.787 405.333c117.973 0 213.546 -95.5732 213.546 -213.333s-95.5732 -213.333 -213.546 -213.333c-117.761 0 -213.12 95.5732 -213.12 213.333s95.3594 213.333 213.12 213.333zM256 21.333c94.293 0 170.667 76.374 170.667 170.667
s-76.374 170.667 -170.667 170.667s-170.667 -76.374 -170.667 -170.667s76.374 -170.667 170.667 -170.667zM330.667 213.333c-17.707 0 -32 14.2939 -32 32c0 17.707 14.293 32 32 32c17.7061 0 32 -14.293 32 -32c0 -17.7061 -14.2939 -32 -32 -32zM181.333 213.333
c-17.7061 0 -32 14.2939 -32 32c0 17.707 14.2939 32 32 32c17.707 0 32 -14.293 32 -32c0 -17.7061 -14.293 -32 -32 -32zM256 74.667c-49.707 0 -91.9463 31.1465 -109.014 74.666h218.027c-17.0674 -43.5195 -59.3066 -74.666 -109.014 -74.666z" />
    <glyph glyph-name="uniF269" unicode="&#xf269;" 
d="M426.667 64h85.333c0 -23.4668 -19.2002 -42.667 -42.667 -42.667h-426.666c-23.4668 0 -42.667 19.2002 -42.667 42.667h85.333c-23.4668 0 -42.666 19.2002 -42.666 42.667v234.666c0 23.4668 19.1992 42.667 42.666 42.667h341.334
c23.4668 0 42.666 -19.2002 42.666 -42.667l-0.212891 -234.666c0 -23.4668 -18.9863 -42.667 -42.4531 -42.667zM85.333 341.333v-234.666h341.334v234.666h-341.334zM256 42.667c11.7334 0 21.333 9.59961 21.333 21.333s-9.59961 21.333 -21.333 21.333
s-21.333 -9.59961 -21.333 -21.333s9.59961 -21.333 21.333 -21.333z" />
    <glyph glyph-name="uniF33C" unicode="&#xf33c;" 
d="M330.667 149.333l106.453 -106.666l-31.7871 -31.7871l-106.666 106.453v16.8535l-5.76074 5.97363c-24.3193 -20.9072 -55.8926 -33.4932 -90.2393 -33.4932c-76.5869 0 -138.667 62.0801 -138.667 138.666c0 76.5869 62.0801 138.667 138.667 138.667
c76.5859 0 138.666 -62.0801 138.666 -138.667c0 -34.3467 -12.5859 -65.9199 -33.4932 -90.2393l5.97363 -5.76074h16.8535zM202.667 149.333c53.1201 0 96 42.8799 96 96s-42.8799 96 -96 96s-96 -42.8799 -96 -96s42.8799 -96 96 -96z" />
    <glyph glyph-name="uniF170" unicode="&#xf170;" 
d="M256 256c-34.1338 0 -67.2002 -5.33301 -98.1338 -15.3604v-66.1328c0 -8.32031 -4.90625 -15.7871 -11.9463 -19.2002c-20.9062 -10.4531 -39.8936 -23.8936 -56.7471 -39.4668c-3.83984 -3.83984 -9.17285 -5.97363 -14.9326 -5.97363
c-5.97363 0 -11.3066 2.34668 -15.1465 6.1875l-52.9072 52.9062c-3.83984 3.62695 -6.18652 8.95996 -6.18652 14.9336c0 5.97266 2.34668 11.3066 6.18652 15.1465c65.0664 61.6533 152.96 99.627 249.813 99.627s184.747 -37.9736 249.813 -99.627
c3.83984 -3.83984 6.18652 -9.17383 6.18652 -15.1465c0 -5.97363 -2.34668 -11.3066 -6.18652 -15.1465l-52.9072 -52.9072c-3.83984 -3.83984 -9.17285 -6.18652 -15.1465 -6.18652c-5.75977 0 -11.0928 2.34668 -14.9326 5.97363
c-16.8535 15.7861 -36.0537 29.0127 -56.9609 39.4668c-7.03906 3.41309 -11.9463 10.666 -11.9463 19.1992v66.1338c-30.7197 10.2402 -63.7861 15.5732 -97.9199 15.5732z" />
    <glyph glyph-name="uniF221" unicode="&#xf221;" 
d="M448 320c11.7334 0 21.333 -9.59961 21.333 -21.333v-320l-85.333 85.333h-234.667c-11.7334 0 -21.333 9.59961 -21.333 21.333v42.667h277.333v192h42.667zM362.667 192c0 -11.7334 -9.60059 -21.333 -21.334 -21.333h-213.333l-85.333 -85.334v298.667
c0 11.7334 9.59961 21.333 21.333 21.333h277.333c11.7334 0 21.334 -9.59961 21.334 -21.333v-192z" />
    <glyph glyph-name="uniF258" unicode="&#xf258;" 
d="M158.08 280.747l97.9199 -97.707l97.9199 97.707l30.0801 -30.0801l-128 -128l-128 128z" />
    <glyph glyph-name="uniF246" unicode="&#xf246;" 
d="M192 384l85.333 -85.1201h-64v-149.547h-42.666v149.547h-64zM341.333 85.1201h64l-85.333 -85.1201l-85.333 85.1201h64v149.547h42.666v-149.547z" />
    <glyph glyph-name="uniF313" unicode="&#xf313;" 
d="M85.333 320v-298.667h298.667v-42.666h-298.667c-23.4668 0 -42.666 19.1992 -42.666 42.666v298.667h42.666zM426.667 405.333c23.4668 0 42.666 -19.1992 42.666 -42.666v-256c0 -23.4668 -19.1992 -42.667 -42.666 -42.667h-256
c-23.4668 0 -42.667 19.2002 -42.667 42.667v256c0 23.4668 19.2002 42.666 42.667 42.666h256zM405.333 213.333v42.667h-85.333v85.333h-42.667v-85.333h-85.333v-42.667h85.333v-85.333h42.667v85.333h85.333z" />
    <glyph glyph-name="uniF3C4" unicode="&#xf3c4;" 
d="M448 384c23.4668 0 42.667 -19.2002 42.667 -42.667l-0.213867 -256c0 -23.4668 -18.9863 -42.666 -42.4531 -42.666h-106.667v-42.667h-170.666v42.667h-106.667c-23.4668 0 -42.667 19.1992 -42.667 42.666v256c0 23.4668 19.2002 42.667 42.667 42.667h384z
M448 85.333v256h-384v-256h384z" />
    <glyph glyph-name="uniF3DC" unicode="&#xf3dc;" 
d="M256 352c106.667 0 197.76 -66.3467 234.667 -160c-36.9072 -93.6533 -128 -160 -234.667 -160s-197.76 66.3467 -234.667 160c36.9072 93.6533 128 160 234.667 160zM256 85.333c58.8799 0 106.667 47.7871 106.667 106.667s-47.7871 106.667 -106.667 106.667
s-106.667 -47.7871 -106.667 -106.667s47.7871 -106.667 106.667 -106.667zM256 256c35.4131 0 64 -28.5869 64 -64s-28.5869 -64 -64 -64s-64 28.5869 -64 64s28.5869 64 64 64z" />
    <glyph glyph-name="uniF1AB" unicode="&#xf1ab;" 
d="M384 362.667c23.4668 0 42.667 -19.2002 42.667 -42.667v-256c0 -23.4668 -19.2002 -42.667 -42.667 -42.667h-256c-23.4668 0 -42.667 19.2002 -42.667 42.667v256c0 23.4668 19.2002 42.667 42.667 42.667h256zM384 64v256h-256v-256h256z" />
    <glyph glyph-name="uniF25A" unicode="&#xf25a;" 
d="M183.253 99.4131l97.707 97.9199l-97.707 97.9199l30.0801 30.0801l128 -128l-128 -128z" />
    <glyph glyph-name="uniF2C3" unicode="&#xf2c3;" 
d="M256 405.333l160 -390.187l-15.1465 -15.1465l-144.854 64l-144.854 -64l-15.1465 15.1465z" />
    <glyph glyph-name="uniF21F" unicode="&#xf21f;" 
d="M213.333 234.667c-47.1465 0 -85.333 38.1865 -85.333 85.333s38.1865 85.333 85.333 85.333h170.667v-42.666h-42.667v-234.667h-42.666v234.667h-42.667v-234.667h-42.667v106.667zM170.667 85.333h256v-42.666h-256v-64l-85.334 85.333l85.334 85.333v-64z" />
    <glyph glyph-name="uniF2DC" unicode="&#xf2dc;" 
d="M425.387 -2.55957c0.853516 -2.34668 1.28027 -4.48047 1.49316 -6.61328c0 -7.04004 -5.12012 -12.1602 -13.4395 -12.1602h-314.667c-8.5332 0 -13.4404 5.12012 -13.4404 12.1602c0 1.91992 0.426758 4.2666 1.49414 6.61328
c23.2529 62.7197 34.9863 128.64 34.9863 194.56s-11.7334 131.84 -35.2002 194.56c-0.853516 2.34668 -1.28027 4.48047 -1.28027 6.61328c0 7.25391 4.90723 12.1602 13.4404 12.1602h314.453c8.5332 0 13.4404 -4.90625 13.4404 -12.1602
c0 -1.91992 -0.426758 -4.2666 -1.28027 -6.61328c-23.2529 -62.7197 -34.9863 -128.64 -34.9863 -194.56s11.5195 -131.84 34.9863 -194.56zM139.52 21.333h232.747c-16.4268 55.4668 -24.7471 112.641 -24.7471 170.667s8.32031 115.2 24.7471 170.667h-232.747
c16.4268 -55.4668 24.7471 -112.641 24.7471 -170.667s-8.32031 -115.2 -24.7471 -170.667z" />
    <glyph glyph-name="uniF106" unicode="&#xf106;" 
d="M448 64v-21.333c0 -23.4668 -19.2002 -42.667 -42.667 -42.667h-298.666c-23.6807 0 -42.667 19.2002 -42.667 42.667v298.666c0 23.4668 18.9863 42.667 42.667 42.667h298.666c23.4668 0 42.667 -19.2002 42.667 -42.667v-21.333h-192
c-23.6797 0 -42.667 -19.2002 -42.667 -42.667v-170.666c0 -23.4668 18.9873 -42.667 42.667 -42.667h192zM256 106.667v170.666h213.333v-170.666h-213.333zM341.333 160c17.707 0 32 14.293 32 32s-14.293 32 -32 32c-17.7061 0 -32 -14.293 -32 -32s14.2939 -32 32 -32z
" />
    <glyph glyph-name="uniF36C" unicode="&#xf36c;" 
d="M256.197 14.9658l-0.197266 -0.196289l-0.197266 0.393555l-247.532 308.382c9.45215 7.08887 104.764 85.0703 247.729 85.0703s238.277 -77.9814 247.729 -85.0703zM256.197 14.9658h-0.394531l-148.479 185.108c5.71094 4.13477 62.8184 51.0029 148.677 51.0029
s142.966 -46.8682 148.677 -51.0029z" />
    <glyph glyph-name="uniF357" unicode="&#xf357;" 
d="M225.92 252.373l-30.293 -30.0801l-110.294 110.294l30.0801 30.0801zM309.333 362.667h117.334v-117.334l-43.5205 43.5205l-267.733 -267.521l-30.0801 30.0801l267.521 267.733zM316.373 161.92l66.7734 -66.7734l43.5205 43.5205v-117.334h-117.334l43.7334 43.7334
l-66.7734 66.7734z" />
    <glyph glyph-name="uniF3CF" unicode="&#xf3cf;" 
d="M362.667 224l85.333 85.333v-234.666l-85.333 85.333v-74.667c0 -11.7334 -9.60059 -21.333 -21.334 -21.333h-256c-11.7334 0 -21.333 9.59961 -21.333 21.333v213.334c0 11.7334 9.59961 21.333 21.333 21.333h256c11.7334 0 21.334 -9.59961 21.334 -21.333v-74.667z
" />
    <glyph glyph-name="uniF226" unicode="&#xf226;" 
d="M320 288l-64 -64l-64 64v117.333h128v-117.333zM160 256l64 -64l-64 -64h-117.333v128h117.333zM192 96l64 64l64 -64v-117.333h-128v117.333zM352 256h117.333v-128h-117.333l-64 64z" />
    <glyph glyph-name="uniF13D" unicode="&#xf13d;" 
d="M308.693 160h53.9736v-152.96c0 -15.5732 -12.8008 -28.373 -28.5869 -28.373h-156.373c-15.5732 0 -28.374 12.7998 -28.374 28.373v152.96h53.9736l-11.3066 -21.333h42.667v-117.334zM334.293 362.667c15.5732 0 28.374 -12.8008 28.374 -28.374v-174.293h-53.9736
l11.3066 21.333h-42.667v117.334l-74.0264 -138.667h-53.9736v174.293c0 15.5732 12.8008 28.374 28.374 28.374h35.626v42.666h85.334v-42.666h35.626z" />
    <glyph glyph-name="uniF3E6" unicode="&#xf3e6;" 
d="M426.667 320c23.6797 0 42.666 -18.9863 42.666 -42.667v-234.666c0 -23.6807 -18.9863 -42.667 -42.666 -42.667h-341.334c-23.6797 0 -42.666 18.9863 -42.666 42.667l0.212891 234.666c0 23.6807 18.7734 42.667 42.4531 42.667h46.5068
c-2.34668 6.61328 -3.83984 13.8662 -3.83984 21.333c0 35.4141 28.5869 64 64 64c22.4004 0 41.8135 -11.5195 53.333 -28.5859l10.667 -14.5068l10.667 14.293c11.5195 17.2803 30.9326 28.7998 53.333 28.7998c35.4131 0 64 -28.5859 64 -64
c0 -7.4668 -1.49316 -14.7197 -3.83984 -21.333h46.5068zM320 362.667c-11.7334 0 -21.333 -9.60059 -21.333 -21.334s9.59961 -21.333 21.333 -21.333s21.333 9.59961 21.333 21.333s-9.59961 21.334 -21.333 21.334zM192 362.667
c-11.7334 0 -21.333 -9.60059 -21.333 -21.334s9.59961 -21.333 21.333 -21.333s21.333 9.59961 21.333 21.333s-9.59961 21.334 -21.333 21.334zM426.667 42.667v42.666h-341.334v-42.666h341.334zM426.667 149.333v128h-108.374l44.374 -60.373l-34.5605 -24.96
l-50.7734 69.1201l-21.333 29.0137l-21.333 -29.0137l-50.7734 -69.1201l-34.5605 24.96l44.374 60.373h-108.374v-128h341.334z" />
    <glyph glyph-name="uniF3AE" unicode="&#xf3ae;" 
d="M21.333 0v256h85.334v-256h-85.334zM490.667 234.667l-0.213867 -1.70703l0.213867 -0.212891v-40.7471c0 -5.54688 -1.06738 -10.667 -2.9873 -15.5732l-64.4268 -150.4c-6.39941 -15.3594 -21.5459 -26.0264 -39.2529 -26.0264h-192
c-23.4668 0 -42.667 19.2002 -42.667 42.667v213.333c0 11.7334 4.69336 22.4004 12.5869 30.0801l140.373 140.587l22.6133 -22.4004c5.76074 -5.75977 9.38672 -13.8662 9.38672 -22.6133l-0.639648 -6.82617l-20.2666 -97.4941h134.613
c23.4668 0 42.667 -19.1992 42.667 -42.666z" />
    <glyph glyph-name="uniF259" unicode="&#xf259;" 
d="M328.747 104.747l-30.0801 -30.0801l-128 128l128 128l30.0801 -30.0801l-97.707 -97.9199z" />
    <glyph glyph-name="uniF18C" unicode="&#xf18c;" 
d="M412.8 233.813c55.4668 -3.83984 99.2002 -49.4932 99.2002 -105.813c0 -58.8799 -47.7871 -106.667 -106.667 -106.667h-277.333c-70.6133 0 -128 57.3867 -128 128c0 65.9199 49.9199 120.32 114.134 127.147c26.666 51.1992 80.2129 86.1865 141.866 86.1865
c77.6533 0 142.293 -55.2539 156.8 -128.854z" />
    <glyph glyph-name="uniF2DA" unicode="&#xf2da;" 
d="M256 405.333c117.974 0 213.333 -95.3594 213.333 -213.333s-95.3594 -213.333 -213.333 -213.333s-213.333 95.3594 -213.333 213.333s95.3594 213.333 213.333 213.333zM256 21.333c94.0801 0 170.667 76.5869 170.667 170.667s-76.5869 170.667 -170.667 170.667
s-170.667 -76.5869 -170.667 -170.667s76.5869 -170.667 170.667 -170.667z" />
    <glyph glyph-name="uniF177" unicode="&#xf177;" 
d="M187.733 192c0 45.5111 22.7555 68.2666 68.2666 68.2666c45.5111 0 68.2666 -22.7555 68.2666 -68.2666s-22.7555 -68.2666 -68.2666 -68.2666c-45.5111 0 -68.2666 22.7555 -68.2666 68.2666zM192 405.333h128l39.04 -42.666h67.627
c11.7333 0 21.7777 -4.1778 30.133 -12.5334s12.533 -18.4001 12.533 -30.1336v-256c0 -5.76141 -1.13096 -11.2749 -3.39287 -16.5405c-2.26192 -5.26555 -5.29984 -9.80536 -9.11376 -13.6194c-3.81392 -3.81406 -8.35362 -6.85209 -13.6191 -9.11411
c-5.26547 -2.26201 -10.7789 -3.39302 -16.5403 -3.39302h-341.334c-11.7333 0 -21.7777 4.1778 -30.133 12.5334s-12.533 18.4001 -12.533 30.1336v256c0 11.7335 4.17767 21.778 12.533 30.1336s18.3997 12.5334 30.133 12.5334h67.627zM256 85.333
c29.4399 0 54.5778 10.4178 75.4135 31.2535s31.2535 45.9735 31.2535 75.4135s-10.4178 54.5778 -31.2535 75.4135s-45.9735 31.2535 -75.4135 31.2535s-54.5778 -10.4178 -75.4135 -31.2535s-31.2535 -45.9735 -31.2535 -75.4135s10.4178 -54.5778 31.2535 -75.4135
s45.9735 -31.2535 75.4135 -31.2535z" />
    <glyph glyph-name="uniF388" unicode="&#xf388;" 
d="M21.5469 298.667c0 23.4668 18.9863 42.666 42.4531 42.666h384c23.4668 0 42.667 -19.1992 42.667 -42.666v-213.334c0 -23.4668 -19.2002 -42.666 -42.667 -42.666h-384c-23.4668 0 -42.667 19.1992 -42.667 42.666zM405.333 298.667h-298.666v-213.334h298.666
v213.334z" />
    <glyph glyph-name="uniF32C" unicode="&#xf32c;" 
d="M172.8 163.413l-89.3867 89.1738c-33.2793 33.4932 -33.2793 87.4668 0 120.746l149.76 -149.546zM317.44 202.026l-31.3604 -31.3594l146.773 -146.773l-30.0801 -30.0801l-146.773 146.773l-146.986 -146.561l-30.0801 30.0801l208.213 208.214
c-15.1465 32.6396 -4.47949 78.5068 29.4404 112.427c40.96 40.7461 99.4131 48.4258 130.56 17.2793c31.3604 -31.3594 23.4668 -89.8135 -17.2803 -130.56c-33.9199 -33.9199 -79.7861 -44.5869 -112.426 -29.4404z" />
    <glyph glyph-name="uniF20C" unicode="&#xf20c;" 
d="M64 0v42.667h384v-42.667h-384zM64 85.333v42.667h384v-42.667h-384zM64 170.667v42.666h384v-42.666h-384zM64 256v42.667h384v-42.667h-384zM64 384h384v-42.667h-384v42.667z" />
    <glyph glyph-name="uniF176" unicode="&#xf176;" 
d="M200.533 224l-1.28027 -2.13379l-78.0801 135.467c36.6934 29.8672 83.627 48 134.827 48c16 0 31.3604 -1.91992 46.293 -5.12012zM459.52 256h-206.079l78.0791 135.253c60.8008 -23.04 108.374 -72.96 128 -135.253zM465.066 234.667
c2.77344 -13.8672 4.2666 -27.9473 4.2666 -42.667c0 -55.6797 -21.333 -106.026 -56.3193 -144l-101.547 176l-6.18652 10.667h159.786zM182.187 192l24.5332 -42.667h-159.786c-2.77344 13.8672 -4.2666 27.9473 -4.2666 42.667c0 55.6797 21.5459 106.026 56.3193 144z
M52.4805 128h206.079l-78.0791 -135.253c-60.8008 23.04 -108.374 72.96 -128 135.253zM292.906 128l19.8408 34.1338l78.0801 -135.467c-36.6934 -29.8672 -83.627 -48 -134.827 -48c-16 0 -31.3604 1.91992 -46.293 5.12012z" />
    <glyph glyph-name="uniF16F" unicode="&#xf16f;" 
d="M141.227 217.813c30.7197 -60.373 80.2139 -109.653 140.587 -140.587l46.9336 46.9336c5.75977 5.75977 14.293 7.67969 21.7598 5.12012c23.8936 -7.89355 49.7061 -12.1602 76.1602 -12.1602c11.7334 0 21.333 -9.60059 21.333 -21.333v-74.4541
c0 -11.7334 -9.59961 -21.333 -21.333 -21.333c-200.32 0 -362.667 162.347 -362.667 362.667c0 11.7334 9.59961 21.333 21.333 21.333h74.667c11.7334 0 21.333 -9.59961 21.333 -21.333c0 -26.667 4.2666 -52.2666 12.1602 -76.1602
c2.34668 -7.4668 0.640625 -15.7871 -5.33301 -21.7598z" />
    <glyph glyph-name="uniF243" unicode="&#xf243;" 
d="M384 277.333c23.4668 0 42.667 -19.1992 42.667 -42.666v-213.334c0 -23.4668 -19.2002 -42.666 -42.667 -42.666h-256c-23.4668 0 -42.667 19.1992 -42.667 42.666v213.334c0 23.4668 19.2002 42.666 42.667 42.666h21.333v42.667
c0 58.8799 47.7871 106.667 106.667 106.667s106.667 -47.7871 106.667 -106.667v-42.667h21.333zM256 85.333c23.4668 0 42.667 19.2002 42.667 42.667s-19.2002 42.667 -42.667 42.667s-42.667 -19.2002 -42.667 -42.667s19.2002 -42.667 42.667 -42.667zM322.134 277.333
v42.667c0 36.4805 -29.6533 66.1338 -66.1338 66.1338s-66.1338 -29.6533 -66.1338 -66.1338v-42.667h132.268z" />
    <glyph glyph-name="uniF2A9" unicode="&#xf2a9;" 
d="M320 256v-128h-128v128h128zM277.333 170.667v42.666h-42.666v-42.666h42.666zM448 213.333h-42.667v-42.666h42.667v-42.667h-42.667v-42.667c0 -23.4668 -19.1992 -42.666 -42.666 -42.666h-42.667v-42.667h-42.667v42.667h-42.666v-42.667h-42.667v42.667h-42.667
c-23.4668 0 -42.666 19.1992 -42.666 42.666v42.667h-42.667v42.667h42.667v42.666h-42.667v42.667h42.667v42.667c0 23.4668 19.1992 42.666 42.666 42.666h42.667v42.667h42.667v-42.667h42.666v42.667h42.667v-42.667h42.667c23.4668 0 42.666 -19.1992 42.666 -42.666
v-42.667h42.667v-42.667zM362.667 85.333v213.334h-213.334v-213.334h213.334z" />
    <glyph glyph-name="uniF36E" unicode="&#xf36e;" 
d="M256.197 14.9658l-0.197266 -0.196289l-0.197266 0.393555l-247.532 308.382c9.45215 7.08887 104.764 85.0703 247.729 85.0703s238.277 -77.9814 247.729 -85.0703z" />
    <glyph glyph-name="uniF124" unicode="&#xf124;" 
d="M405.333 384c23.4668 0 42.667 -19.2002 42.667 -42.667v-298.666c0 -23.4668 -19.2002 -42.667 -42.667 -42.667h-298.666c-23.4668 0 -42.667 19.2002 -42.667 42.667v298.666c0 23.4668 19.2002 42.667 42.667 42.667h298.666zM192 85.333v149.334h-42.667v-149.334
h42.667zM277.333 85.333v213.334h-42.666v-213.334h42.666zM362.667 85.333v85.334h-42.667v-85.334h42.667z" />
    <glyph glyph-name="uniF324" unicode="&#xf324;" 
d="M64 128v42.667h384v-42.667h-384zM64 42.667v42.666h384v-42.666h-384zM64 213.333v42.667h384v-42.667h-384zM64 341.333h384v-42.666h-384v42.666z" />
    <glyph glyph-name="uniF278" unicode="&#xf278;" 
d="M426.667 384c23.6797 0 42.666 -18.9863 42.666 -42.667v-64c0 -23.6797 -18.9863 -42.666 -42.666 -42.666h-42.667v-64c0 -47.1475 -38.1865 -85.334 -85.333 -85.334h-128c-47.1475 0 -85.334 38.1865 -85.334 85.334v213.333h341.334zM426.667 277.333v64h-42.667
v-64h42.667zM42.667 0v42.667h384v-42.667h-384z" />
    <glyph glyph-name="uniF37F" unicode="&#xf37f;" 
d="M64 64v42.667h128v-42.667h-128zM64 320h384v-42.667h-384v42.667zM64 170.667v42.666h256v-42.666h-256z" />
    <glyph glyph-name="uniF356" unicode="&#xf356;" 
d="M149.333 64c23.4668 0 42.667 -19.2002 42.667 -42.667s-19.2002 -42.666 -42.667 -42.666s-42.4531 19.1992 -42.4531 42.666s18.9863 42.667 42.4531 42.667zM21.333 405.333h69.7607l20.0527 -42.666h315.521c11.7334 0 21.333 -9.60059 21.333 -21.334
c0 -3.62598 -0.853516 -7.25293 -2.55957 -10.2393l-76.374 -138.454c-7.25293 -13.2266 -21.333 -21.9727 -37.333 -21.9727h-158.934l-19.2002 -34.7734l-0.639648 -2.56055c0 -2.98633 2.34668 -5.33301 5.33301 -5.33301h247.04v-42.667h-256
c-23.4668 0 -42.666 19.2002 -42.666 42.667c0 7.4668 1.91992 14.5068 5.33301 20.4805l28.7998 52.2666l-76.7998 161.92h-42.667v42.666zM362.667 64c23.4668 0 42.666 -19.2002 42.666 -42.667s-19.1992 -42.666 -42.666 -42.666s-42.4541 19.1992 -42.4541 42.666
s18.9873 42.667 42.4541 42.667z" />
    <glyph glyph-name="uniF2F1" unicode="&#xf2f1;" 
d="M341.333 426.667c35.4141 0 64 -28.5869 64 -64v-341.334c0 -35.4131 -28.5859 -64 -64 -64h-170.666c-35.4141 0 -64 28.5869 -64 64v341.334c0 35.4131 28.5859 64 64 64h170.666zM298.667 0v21.333h-85.334v-21.333h85.334zM368 64v298.667h-224v-298.667h224z" />
    <glyph glyph-name="uniF352" unicode="&#xf352;" 
d="M384 104.96c34.3467 0 62.293 -27.9463 62.293 -62.293s-27.9463 -62.2939 -62.293 -62.2939s-62.293 27.9473 -62.293 62.2939c0 4.69336 0.639648 9.38672 1.70605 13.8662l-151.894 88.7471c-11.5195 -10.667 -26.666 -17.2803 -43.5195 -17.2803
c-35.4131 0 -64 28.5869 -64 64s28.5869 64 64 64c16.8535 0 32 -6.61328 43.5195 -17.2803l150.4 87.6807c-1.06641 4.90625 -1.91992 9.8125 -1.91992 14.9326c0 35.4141 28.5869 64 64 64s64 -28.5859 64 -64c0 -35.4131 -28.5869 -64 -64 -64
c-16.8535 0 -32 6.61328 -43.5195 17.2803l-150.4 -87.6797c1.06641 -4.90723 1.91992 -9.81348 1.91992 -14.9336s-0.853516 -10.0264 -1.91992 -14.9336l152.106 -88.5332c11.0938 10.0264 25.6006 16.4268 41.8135 16.4268z" />
    <glyph glyph-name="uniF15B" unicode="&#xf15b;" 
d="M149.333 0v42.667h42.667v-42.667h-42.667zM64 341.333v42.667h42.667v-42.667h-42.667zM149.333 341.333v42.667h42.667v-42.667h-42.667zM149.333 170.667v42.666h42.667v-42.666h-42.667zM64 0v42.667h42.667v-42.667h-42.667zM234.667 0v42.667h42.666v-42.667
h-42.666zM64 170.667v42.666h42.667v-42.666h-42.667zM64 85.333v42.667h42.667v-42.667h-42.667zM64 256v42.667h42.667v-42.667h-42.667zM234.667 85.333v42.667h42.666v-42.667h-42.666zM320 170.667v42.666h42.667v-42.666h-42.667zM405.333 384h42.667v-384h-42.667
v384zM320 0v42.667h42.667v-42.667h-42.667zM320 341.333v42.667h42.667v-42.667h-42.667zM234.667 170.667v42.666h42.666v-42.666h-42.666zM234.667 341.333v42.667h42.666v-42.667h-42.666zM234.667 256v42.667h42.666v-42.667h-42.666z" />
    <glyph glyph-name="uniF2C0" unicode="&#xf2c0;" 
d="M472.96 252.373c0 -76.5859 -57.5996 -139.52 -131.627 -148.267v-82.7734h64v-42.666h-341.333v106.666h-21.333v85.334c0 11.7334 9.59961 21.333 21.333 21.333h64c11.7334 0 21.333 -9.59961 21.333 -21.333v-85.334h-21.333v-64h170.667v84.0537
c-70.6133 11.7334 -124.374 72.96 -124.374 146.986c0 82.5605 66.7734 149.334 149.334 149.334c82.5596 0 149.333 -66.7734 149.333 -149.334zM96 213.333c-17.707 0 -32 14.2939 -32 32c0 17.707 14.293 32 32 32s32 -14.293 32 -32c0 -17.7061 -14.293 -32 -32 -32z
" />
    <glyph glyph-name="uniF3D8" unicode="&#xf3d8;" 
d="M85.333 213.333v128h106.667v-128h-106.667zM85.333 64v128h106.667v-128h-106.667zM213.333 64v128h106.667v-128h-106.667zM341.333 64v128h106.667v-128h-106.667zM213.333 213.333v128h106.667v-128h-106.667zM341.333 341.333h106.667v-128h-106.667v128z" />
    <glyph glyph-name="uniF2F0" unicode="&#xf2f0;" 
d="M141.227 217.813c30.7197 -60.373 80.2139 -109.653 140.587 -140.587l46.9336 46.9336c5.75977 5.75977 14.293 7.67969 21.7598 5.12012c23.8936 -7.89355 49.7061 -12.1602 76.1602 -12.1602c11.7334 0 21.333 -9.60059 21.333 -21.333v-74.4541
c0 -11.7334 -9.59961 -21.333 -21.333 -21.333c-200.32 0 -362.667 162.347 -362.667 362.667c0 11.7334 9.59961 21.333 21.333 21.333h74.667c11.7334 0 21.333 -9.59961 21.333 -21.333c0 -26.667 4.2666 -52.2666 12.1602 -76.1602
c2.34668 -7.4668 0.640625 -15.7871 -5.33301 -21.7598z" />
    <glyph glyph-name="uniF1FE" unicode="&#xf1fe;" 
d="M307.2 320h119.467v-213.333h-149.334l-8.5332 42.666h-119.467v-149.333h-42.666v362.667h192z" />
    <glyph glyph-name="uniF1F4" unicode="&#xf1f4;" 
d="M106.667 128v-85.333h85.333v-42.667h-85.333c-23.4668 0 -42.667 19.2002 -42.667 42.667v85.333h42.667zM106.667 341.333v-85.333h-42.667v85.333c0 23.4668 19.2002 42.667 42.667 42.667h85.333v-42.667h-85.333zM405.333 384
c23.4668 0 42.667 -19.2002 42.667 -42.667v-85.333h-42.667v85.333h-85.333v42.667h85.333zM405.333 42.667v85.333h42.667v-85.333c0 -23.4668 -19.2002 -42.667 -42.667 -42.667h-85.333v42.667h85.333zM256 256c35.4131 0 64 -28.5869 64 -64s-28.5869 -64 -64 -64
s-64 28.5869 -64 64s28.5869 64 64 64z" />
    <glyph glyph-name="uniF171" unicode="&#xf171;" 
d="M192 341.333h213.333v-213.333h-42.666v140.587l-247.254 -247.254l-30.0801 30.0801l247.254 247.254h-140.587v42.666z" />
    <glyph glyph-name="uniF21C" unicode="&#xf21c;" 
d="M192 362.667h277.333v-64h-106.666v-256h-64v256h-106.667v64zM64 192v64h192v-64h-64v-149.333h-64v149.333h-64z" />
    <glyph glyph-name="uniF32E" unicode="&#xf32e;" 
d="M505.813 92.373c3.83984 -3.83984 6.18652 -9.17285 6.18652 -14.9326c0 -5.97363 -2.34668 -11.3066 -6.18652 -15.1475l-52.9072 -52.9062c-3.83984 -3.83984 -9.17285 -6.18652 -15.1465 -6.18652c-5.75977 0 -11.0928 2.13281 -14.9326 5.97266
c-16.8535 15.5742 -35.8408 29.0137 -56.7471 39.4668c-7.04004 3.41406 -11.9463 10.8799 -11.9463 19.2002v66.1338c-30.9336 10.0264 -64 15.3594 -98.1338 15.3594s-67.2002 -5.33301 -98.1338 -15.5732v-66.1328c0 -8.5332 -4.90625 -15.7871 -11.9463 -19.2002
c-20.6934 -10.4531 -39.8936 -23.6797 -56.7471 -39.4668c-3.83984 -3.62695 -9.17285 -5.97363 -14.9326 -5.97363c-5.97363 0 -11.3066 2.34668 -15.1465 6.18652l-52.9072 52.9072c-3.83984 3.83984 -6.18652 9.17285 -6.18652 15.1465s2.34668 11.3066 6.18652 15.1465
c65.0664 61.6533 152.96 99.627 249.813 99.627s184.747 -37.9736 249.813 -99.627zM451.413 314.453c-2.34668 -0.639648 -75.9463 -75.7334 -75.9463 -75.7334l-30.0801 30.0801l75.9463 75.7334zM277.333 405.333v-106.666h-42.666v106.666h42.666zM136.533 238.72
c0 0 -73.5996 75.0938 -75.9463 75.7334l30.293 30.2939l75.7334 -75.9473z" />
    <glyph glyph-name="uniF144" unicode="&#xf144;" 
d="M334.293 362.667c15.5732 0 28.374 -12.8008 28.374 -28.374v-327.253c0 -15.5732 -12.8008 -28.373 -28.5869 -28.373h-156.373c-15.5732 0 -28.374 12.7998 -28.374 28.5859v327.04c0 15.5732 12.8008 28.374 28.374 28.374h35.626v42.666h85.334v-42.666h35.626z
M276.267 65.0664v40.5332h-40.5332v-40.5332h40.5332zM305.066 177.28c9.17383 9.17285 14.9336 21.9727 14.9336 36.0527c0 35.4141 -28.5869 64 -64 64s-64 -28.5859 -64 -64h32c0 17.707 14.293 32 32 32s32 -14.293 32 -32
c0 -8.74609 -3.62695 -16.8525 -9.38672 -22.6133l-19.8398 -20.0527c-10.0264 -10.2402 -19.8398 -24.96 -19.8398 -42.667h34.1328c0 9.59961 7.4668 23.8936 17.707 34.1338c6.18652 6.18652 14.293 15.1465 14.293 15.1465z" />
    <glyph glyph-name="uniF2F8" unicode="&#xf2f8;" 
d="M362.667 384v-149.333h-42.667v149.333h42.667zM426.667 117.333c11.7334 0 21.333 -9.59961 21.333 -21.333v-74.667c0 -11.7334 -9.59961 -21.333 -21.333 -21.333c-200.32 0 -362.667 162.347 -362.667 362.667c0 11.7334 9.59961 21.333 21.333 21.333h74.667
c11.7334 0 21.333 -9.59961 21.333 -21.333c0 -26.667 4.2666 -52.2666 12.1602 -76.1602c2.34668 -7.4668 0.640625 -15.7871 -5.33301 -21.334l-46.9336 -47.1465c30.7197 -60.5859 80.2139 -109.866 140.587 -140.586l46.9336 46.9326
c5.97266 5.76074 14.293 7.4668 21.7598 5.12012c23.8936 -7.89355 49.4932 -12.1602 76.1602 -12.1602zM405.333 384h42.667v-149.333h-42.667v149.333z" />
    <glyph glyph-name="uniF174" unicode="&#xf174;" 
d="M426.667 332.587l-247.254 -247.254h140.587v-42.666h-213.333v213.333h42.666v-140.587l247.254 247.254z" />
    <glyph glyph-name="uniF3F4" unicode="&#xf3f4;" 
d="M426.667 320c23.6797 0 42.666 -18.9863 42.666 -42.667v-234.666c0 -23.6807 -18.9863 -42.667 -42.666 -42.667h-341.334c-23.6797 0 -42.666 18.9863 -42.666 42.667l0.212891 234.666c0 23.6807 18.7734 42.667 42.4531 42.667h85.334v42.667
c0 23.6797 18.9863 42.666 42.666 42.666h85.334c23.6797 0 42.666 -18.9863 42.666 -42.666v-42.667h85.334zM298.667 320v42.667h-85.334v-42.667h85.334z" />
    <glyph glyph-name="uniF299" unicode="&#xf299;" 
d="M384 277.333c23.4668 0 42.667 -19.1992 42.667 -42.666v-213.334c0 -23.4668 -19.2002 -42.666 -42.667 -42.666h-256c-23.4668 0 -42.667 19.1992 -42.667 42.666v213.334c0 23.4668 19.2002 42.666 42.667 42.666h21.333v42.667
c0 58.8799 47.7871 106.667 106.667 106.667s106.667 -47.7871 106.667 -106.667v-42.667h21.333zM256 386.134c-36.4805 0 -66.1338 -29.6533 -66.1338 -66.1338h2.13379v-42.667h130.134v42.667c0 36.4805 -29.6533 66.1338 -66.1338 66.1338zM384 21.333v213.334h-256
v-213.334h256zM256 85.333c-23.4668 0 -42.667 19.2002 -42.667 42.667s19.2002 42.667 42.667 42.667s42.667 -19.2002 42.667 -42.667s-19.2002 -42.667 -42.667 -42.667z" />
    <glyph glyph-name="uniF1F2" unicode="&#xf1f2;" 
d="M64 341.333v-341.333h341.333v-42.667h-341.333c-23.4668 0 -42.667 19.2002 -42.667 42.667v341.333h42.667zM298.667 192c0 -23.6797 -19.2002 -42.667 -42.667 -42.667h-64v42.667h64v21.333h-21.333c-23.4668 0 -42.667 18.9873 -42.667 42.667v21.333
c0 23.6807 19.2002 42.667 42.667 42.667h21.333c23.4668 0 42.667 -18.9863 42.667 -42.667v-85.333zM234.667 256h21.333v21.333h-21.333v-21.333zM448 426.667c23.4668 0 42.667 -19.2002 42.667 -42.667v-298.667c0 -23.4668 -19.2002 -42.666 -42.667 -42.666h-298.667
c-23.4668 0 -42.666 19.1992 -42.666 42.666v298.667c0 23.4668 19.1992 42.667 42.666 42.667h298.667zM448 256v128h-298.667v-298.667h298.667v128h-42.667v-42.666h-42.666v42.666h-42.667v42.667h42.667v42.667h42.666v-42.667h42.667z" />
    <glyph glyph-name="uniF2AB" unicode="&#xf2ab;" 
d="M362.667 12.5869l-72.7471 72.7461l30.0801 30.0801l72.7471 -72.7461zM160 277.333l96 96l96 -96h-74.667v-136.746l-128 -128l-30.0801 30.0801l115.414 115.413v119.253h-74.667z" />
    <glyph glyph-name="uniF18E" unicode="&#xf18e;" 
d="M412.8 233.813c55.4668 -3.83984 99.2002 -49.4932 99.2002 -105.813c0 -58.8799 -47.7871 -106.667 -106.667 -106.667h-277.333c-70.6133 0 -128 57.3867 -128 128c0 65.9199 49.9199 120.32 114.134 127.147c26.666 51.1992 80.2129 86.1865 141.866 86.1865
c77.6533 0 142.293 -55.2539 156.8 -128.854zM213.333 85.333l140.587 140.587l-30.0801 30.0801l-110.507 -110.293l-44.5859 44.373l-30.0801 -30.0801z" />
    <glyph glyph-name="uniF216" unicode="&#xf216;" 
d="M213.333 362.667h170.667v-64h-59.5195l-72.9609 -170.667h47.1475v-64h-170.667v64h59.5195l72.9609 170.667h-47.1475v64z" />
    <glyph glyph-name="uniF240" unicode="&#xf240;" 
d="M277.333 384c106.027 0 192 -85.9736 192 -192s-85.9727 -192 -192 -192c-53.1201 0 -100.906 21.5469 -135.68 56.3203l30.293 30.293c26.8809 -27.0938 64.2139 -43.9463 105.387 -43.9463c82.5605 0 149.334 66.7734 149.334 149.333
s-66.7734 149.333 -149.334 149.333c-82.5596 0 -149.333 -66.7734 -149.333 -149.333h64l-86.1865 -85.9736l-1.49316 2.9873l-82.9873 82.9863h64c0 106.026 85.9736 192 192 192zM256 277.333h32v-90.666l74.667 -44.374l-15.3604 -25.8125l-91.3066 54.1865v106.666z
" />
    <glyph glyph-name="uniF197" unicode="&#xf197;" 
d="M213.333 384v42.667h42.667v-469.334h-42.667v42.667h-106.666c-23.4668 0 -42.667 19.2002 -42.667 42.667v298.666c0 23.4668 19.2002 42.667 42.667 42.667h106.666zM213.333 64v128l-106.666 -128h106.666zM405.333 384c23.4668 0 42.667 -19.2002 42.667 -42.667
v-298.666c0 -23.4668 -19.2002 -42.667 -42.667 -42.667h-106.666v192l106.666 -128v277.333h-106.666v42.667h106.666z" />
    <glyph glyph-name="uniF298" unicode="&#xf298;" 
d="M256 85.333c-23.4668 0 -42.667 19.2002 -42.667 42.667s19.2002 42.667 42.667 42.667s42.667 -19.2002 42.667 -42.667s-19.2002 -42.667 -42.667 -42.667zM384 277.333c23.4668 0 42.667 -19.1992 42.667 -42.666v-213.334
c0 -23.4668 -19.2002 -42.666 -42.667 -42.666h-256c-23.4668 0 -42.667 19.1992 -42.667 42.666v213.334c0 23.4668 19.2002 42.666 42.667 42.666h194.134v42.667c0 36.4805 -29.6533 66.1338 -66.1338 66.1338s-66.1338 -29.6533 -66.1338 -66.1338h-40.5332
c0 58.8799 47.7871 106.667 106.667 106.667s106.667 -47.7871 106.667 -106.667v-42.667h21.333zM384 21.333v213.334h-256v-213.334h256z" />
    <glyph glyph-name="uniF297" unicode="&#xf297;" 
d="M384 277.333c23.4668 0 42.667 -19.1992 42.667 -42.666v-213.334c0 -23.4668 -19.2002 -42.666 -42.667 -42.666h-256c-23.4668 0 -42.667 19.1992 -42.667 42.666v213.334c0 23.4668 19.2002 42.666 42.667 42.666h21.333v42.667
c0 58.8799 47.7871 106.667 106.667 106.667s106.667 -47.7871 106.667 -106.667v-42.667h21.333zM256 85.333c23.4668 0 42.667 19.2002 42.667 42.667s-19.2002 42.667 -42.667 42.667s-42.667 -19.2002 -42.667 -42.667s19.2002 -42.667 42.667 -42.667zM322.134 277.333
v42.667c0 36.4805 -29.6533 66.1338 -66.1338 66.1338s-66.1338 -29.6533 -66.1338 -66.1338v-42.667h132.268z" />
    <glyph glyph-name="uniF17F" unicode="&#xf17f;" 
d="M106.667 128v-85.333h85.333v-42.667h-85.333c-23.4668 0 -42.667 19.2002 -42.667 42.667v85.333h42.667zM106.667 341.333v-85.333h-42.667v85.333c0 23.4668 19.2002 42.667 42.667 42.667h85.333v-42.667h-85.333zM405.333 384
c23.4668 0 42.667 -19.2002 42.667 -42.667v-85.333h-42.667v85.333h-85.333v42.667h85.333zM405.333 42.667v85.333h42.667v-85.333c0 -23.4668 -19.2002 -42.667 -42.667 -42.667h-85.333v42.667h85.333zM256 277.333c47.1465 0 85.333 -38.1865 85.333 -85.333
s-38.1865 -85.333 -85.333 -85.333s-85.333 38.1865 -85.333 85.333s38.1865 85.333 85.333 85.333zM256 149.333c23.4668 0 42.667 19.2002 42.667 42.667s-19.2002 42.667 -42.667 42.667s-42.667 -19.2002 -42.667 -42.667s19.2002 -42.667 42.667 -42.667z" />
    <glyph glyph-name="uniF117" unicode="&#xf117;" 
d="M256 320c-17.9199 0 -35.2002 -3.41309 -51.2002 -9.17285l-32.4268 32.4258c25.3867 12.374 53.5469 19.4141 83.627 19.4141c106.026 0 192 -85.9736 192 -192c0 -30.0801 -7.04004 -58.2402 -19.4131 -83.627l-32.4268 32.4268
c5.75977 16 9.17285 33.2803 9.17285 51.2002c0 82.5596 -66.7734 149.333 -149.333 149.333zM469.333 325.974l-27.5195 -32.6406l-98.1338 82.3467l27.5205 32.6406zM62.293 399.146l20.6934 -20.9062l372.693 -372.48l-27.0928 -27.0928l-46.9336 46.9326
c-33.707 -29.2266 -77.6533 -46.9326 -125.653 -46.9326c-106.24 0 -192 85.9727 -192 192c0 48 17.707 91.9463 46.9336 125.653l-17.0674 17.0664l-23.6797 -20.0537l-30.293 30.2939l23.6797 19.8398l-28.373 28.373zM351.36 55.6797l-210.347 210.347
c-21.334 -25.8135 -34.3467 -59.0928 -34.3467 -95.3594c0 -82.5605 66.7734 -149.334 149.333 -149.334c36.2666 0 69.5469 13.0137 95.3604 34.3467zM171.094 378.026l-18.3467 -15.1465l-30.2939 30.293l18.3467 15.1475z" />
    <glyph glyph-name="uniF2C6" unicode="&#xf2c6;" 
d="M256.213 -10.4531l-0.212891 -0.213867l-0.212891 0.213867l-248.107 309.12c9.60059 7.25293 104.96 85.333 248.32 85.333c143.146 0 238.72 -78.0801 248.32 -85.333zM75.3066 214.4c9.17383 7.04004 78.0801 62.9326 180.693 62.9326
s171.52 -55.8926 180.693 -62.9326l-180.48 -224.854l-0.212891 -0.213867l-0.212891 0.213867z" />
    <glyph glyph-name="uniF3E7" unicode="&#xf3e7;" 
d="M426.667 405.333c23.6797 0 42.666 -18.9863 42.666 -42.666v-234.667c0 -23.6797 -18.9863 -42.667 -42.666 -42.667h-85.334v-106.666l-85.333 42.666l-85.333 -42.666v106.666h-85.334c-23.6797 0 -42.666 18.9873 -42.666 42.667v234.667
c0 23.6797 18.9863 42.666 42.666 42.666h341.334zM426.667 128v42.667h-341.334v-42.667h341.334zM426.667 234.667v128h-341.334v-128h341.334z" />
    <glyph glyph-name="uniF1A3" unicode="&#xf1a3;" 
d="M405.333 362.667c23.4668 0 42.667 -19.2002 42.667 -42.667v-256c0 -23.4668 -19.2002 -42.667 -42.667 -42.667h-298.666c-23.4668 0 -42.667 19.2002 -42.667 42.667v256c0 23.4668 19.2002 42.667 42.667 42.667h298.666zM405.333 64v256h-298.666v-256h298.666z" />
    <glyph glyph-name="uniF3A1" unicode="&#xf3a1;" 
d="M448 384c23.4668 0 42.667 -19.2002 42.667 -42.667v-298.666c0 -23.4668 -19.2002 -42.667 -42.667 -42.667h-384c-23.4668 0 -42.667 19.2002 -42.667 42.667v298.666c0 23.4668 19.2002 42.667 42.667 42.667h384zM448 42.667v213.333h-170.667v85.333h-213.333
v-298.666h384z" />
    <glyph glyph-name="uniF316" unicode="&#xf316;" 
d="M448 277.333l-64 -42.666l-64 42.666v21.334l64 -42.667l64 42.667v-21.334zM469.333 384c23.4668 0 42.667 -19.2002 42.667 -42.667l-0.212891 -298.666c0 -23.4668 -18.9873 -42.667 -42.4541 -42.667h-426.666c-23.4668 0 -42.667 19.2002 -42.667 42.667v298.666
c0 23.4668 19.2002 42.667 42.667 42.667h426.666zM170.667 320c-35.4141 0 -64 -28.5869 -64 -64s28.5859 -64 64 -64c35.4131 0 64 28.5869 64 64s-28.5869 64 -64 64zM298.667 64v21.333c0 42.667 -85.334 66.1338 -128 66.1338c-42.667 0 -128 -23.4668 -128 -66.1338
v-21.333h256zM469.333 192v128h-170.666v-128h170.666z" />
    <glyph glyph-name="uniF1D6" unicode="&#xf1d6;" 
d="M256 277.333l128 -128l-30.0801 -30.0801l-97.9199 97.707l-97.9199 -97.707l-30.0801 30.0801z" />
    <glyph glyph-name="uniF290" unicode="&#xf290;" 
d="M403.627 319.787l44.373 -127.787v-170.667c0 -11.7334 -9.59961 -21.333 -21.333 -21.333h-21.334c-11.7334 0 -21.333 9.59961 -21.333 21.333v21.334h-256v-21.334c0 -11.7334 -9.59961 -21.333 -21.333 -21.333h-21.334c-11.7334 0 -21.333 9.59961 -21.333 21.333
v170.667l44.373 127.787c4.48047 12.5859 16.2139 21.5459 30.2939 21.5459h53.333v42.667h128v-42.667h53.333c14.0801 0 26.0273 -8.95996 30.2939 -21.5459zM138.667 106.667c17.7061 0 32 14.293 32 32c0 17.7061 -14.2939 32 -32 32c-17.707 0 -32 -14.2939 -32 -32
c0 -17.707 14.293 -32 32 -32zM373.333 106.667c17.707 0 32 14.293 32 32c0 17.7061 -14.293 32 -32 32c-17.7061 0 -32 -14.2939 -32 -32c0 -17.707 14.2939 -32 32 -32zM106.667 213.333h298.666l-32 96h-234.666z" />
    <glyph glyph-name="uniF386" unicode="&#xf386;" 
d="M256 142.934l-79.1465 -57.6006l30.293 93.0137l-79.1465 56.3203h97.0664l30.9336 96l30.9336 -96h97.0664l-79.1465 -56.3203l30.293 -93.0137z" />
    <glyph glyph-name="uniF369" unicode="&#xf369;" 
d="M256.213 -10.4531l-0.212891 -0.213867l-0.212891 0.213867l-248.107 309.12c9.60059 7.25293 104.96 85.333 248.32 85.333c143.146 0 238.72 -78.0801 248.32 -85.333z" />
    <glyph glyph-name="uniF1A4" unicode="&#xf1a4;" 
d="M405.333 341.333c23.4668 0 42.667 -19.1992 42.667 -42.666v-213.334c0 -23.4668 -19.2002 -42.666 -42.667 -42.666h-298.666c-23.4668 0 -42.667 19.1992 -42.667 42.666v213.334c0 23.4668 19.2002 42.666 42.667 42.666h298.666zM405.333 85.333v213.334h-298.666
v-213.334h298.666z" />
    <glyph glyph-name="uniF2FA" unicode="&#xf2fa;" 
d="M469.333 320h-281.173l-42.667 42.667h323.84v-42.667zM40.96 412.8l42.0264 -42.0264l372.48 -372.48l-27.0938 -27.0928l-50.1328 50.1328h-378.24v64h42.667v234.667c0 10.2402 3.83984 19.627 10.0264 26.8799l-38.8271 38.8271zM85.333 314.24v-228.907h228.907z
M490.667 277.333c11.7334 0 21.333 -9.59961 21.333 -21.333v-213.333c0 -11.7334 -9.59961 -21.334 -21.333 -21.334h-3.83984l-64 64h46.5059v149.334h-85.333v-110.507l-42.667 42.667v89.1729c0 11.7334 9.60059 21.333 21.334 21.333h128z" />
    <glyph glyph-name="uniF3DA" unicode="&#xf3da;" 
d="M85.333 64v128h362.667v-128h-362.667zM85.333 341.333h362.667v-128h-362.667v128z" />
    <glyph glyph-name="uniF12E" unicode="&#xf12e;" 
d="M160 64c-64.8535 0 -117.333 52.4805 -117.333 117.333c0 64.8535 52.4795 117.334 117.333 117.334h224c47.1465 0 85.333 -38.1865 85.333 -85.334c0 -47.1465 -38.1865 -85.333 -85.333 -85.333h-181.333c-29.4404 0 -53.334 23.8936 -53.334 53.333
c0 29.4404 23.8936 53.334 53.334 53.334h160v-32h-160c-11.7334 0 -21.334 -9.60059 -21.334 -21.334s9.60059 -21.333 21.334 -21.333h181.333c29.4404 0 53.333 23.8936 53.333 53.333c0 29.4404 -23.8926 53.334 -53.333 53.334h-224
c-47.1465 0 -85.333 -38.1865 -85.333 -85.334c0 -47.1465 38.1865 -85.333 85.333 -85.333h202.667v-32h-202.667z" />
    <glyph glyph-name="uniF285" unicode="&#xf285;" 
d="M456.747 200.96c7.67969 -7.67969 12.5859 -18.5596 12.5859 -30.293s-4.69336 -22.4004 -12.5859 -30.0801l-149.334 -149.334c-7.67969 -7.89258 -18.3467 -12.5859 -30.0801 -12.5859s-22.3994 4.69336 -30.0801 12.373l-192 192
c-7.89258 7.89355 -12.5859 18.5596 -12.5859 30.293v149.334c0 23.4668 19.1992 42.666 42.666 42.666h149.334c11.7334 0 22.3994 -4.69336 30.0801 -12.373zM117.333 298.667c17.707 0 32 14.293 32 32c0 17.7061 -14.293 32 -32 32c-17.7061 0 -32 -14.2939 -32 -32
c0 -17.707 14.2939 -32 32 -32z" />
    <glyph glyph-name="uniF301" unicode="&#xf301;" 
d="M256 405.333c82.5596 0 149.333 -66.7734 149.333 -149.333c0 -112 -149.333 -277.333 -149.333 -277.333s-149.333 165.333 -149.333 277.333c0 82.5596 66.7734 149.333 149.333 149.333zM256 202.667c29.4404 0 53.333 23.8926 53.333 53.333
s-23.8926 53.333 -53.333 53.333s-53.333 -23.8926 -53.333 -53.333s23.8926 -53.333 53.333 -53.333z" />
    <glyph glyph-name="uniF213" unicode="&#xf213;" 
d="M0 21.333h512v-85.333h-512v85.333zM234.667 384h42.666l117.12 -298.667h-48l-23.8936 64h-133.333l-23.8936 -64h-48zM205.227 192h101.547l-50.7734 135.04z" />
    <glyph glyph-name="uniF264" unicode="&#xf264;" 
d="M376.106 323.413l93.2266 -131.413l-93.2266 -131.413c-7.67969 -10.8799 -20.4795 -17.9199 -34.7734 -17.9199l-234.666 0.212891c-23.4668 0 -42.667 18.9863 -42.667 42.4531v213.334c0 23.4668 19.2002 42.4531 42.667 42.4531l234.666 0.212891
c14.2939 0 27.0938 -7.04004 34.7734 -17.9199zM341.333 85.333l75.7334 106.667l-75.7334 106.667h-234.666v-213.334h234.666z" />
    <glyph glyph-name="uniF2A6" unicode="&#xf2a6;" 
d="M437.333 384c5.97363 0 10.667 -4.69336 10.667 -10.667v-322.56c0 -4.90723 -3.2002 -8.74707 -7.67969 -10.2402l-120.32 -40.5332l-128 44.7998l-113.92 -44.1602l-3.41309 -0.639648c-5.97363 0 -10.667 4.69336 -10.667 10.667v322.56
c0 4.90723 3.2002 8.74707 7.67969 10.2402l120.32 40.5332l128 -44.7998l113.92 44.1602zM320 42.667v253.653l-128 45.0127v-253.653z" />
    <glyph glyph-name="uniF372" unicode="&#xf372;" 
d="M477.342 290.462h-83.4961v-103.976l-137.648 -171.521l-0.197266 -0.196289l-0.197266 0.393555l-247.532 308.382c9.45215 7.08887 104.764 85.0703 247.729 85.0703s238.277 -77.9814 247.926 -85.0703zM393.846 186.486l-137.648 -171.521l-0.197266 -0.196289
l-0.197266 0.196289l-185.698 231.385c7.28613 5.31738 78.7695 63.8037 185.896 63.8037c57.8955 0 105.354 -17.1328 137.846 -33.6738v-89.9941zM433.23 14.7695v39.3848h39.3848v-39.3848h-39.3848zM433.23 251.077h39.3848v-157.539h-39.3848v157.539z" />
    <glyph glyph-name="uniF1B0" unicode="&#xf1b0;" 
d="M298.667 405.333l128 -128v-256c0 -23.4668 -19.2002 -42.666 -42.667 -42.666h-256.213c-23.4668 0 -42.4541 19.1992 -42.4541 42.666l0.213867 341.334c0 23.4668 18.9863 42.666 42.4531 42.666h170.667zM341.333 64v42.667h-170.666v-42.667h170.666z
M341.333 149.333v42.667h-170.666v-42.667h170.666zM277.333 256h117.334l-117.334 117.333v-117.333z" />
    <glyph glyph-name="uniF2F5" unicode="&#xf2f5;" 
d="M330.667 426.667c29.4395 0 53.333 -23.8936 53.333 -53.334v-362.666c0 -29.4404 -23.8936 -53.334 -53.333 -53.334h-170.667c-29.4404 0 -53.333 23.8936 -53.333 53.334v362.666c0 29.4404 23.8926 53.334 53.333 53.334h170.667zM245.333 -21.333
c17.707 0 32 14.293 32 32c0 17.7061 -14.293 32 -32 32c-17.7061 0 -32 -14.2939 -32 -32c0 -17.707 14.2939 -32 32 -32zM341.333 64v298.667h-192v-298.667h192z" />
    <glyph glyph-name="uniF3EA" unicode="&#xf3ea;" 
d="M426.667 192c0 -54.1865 -25.3867 -102.613 -64.8535 -133.76l-20.4805 -122.24h-170.666l-20.2666 122.24c-39.6807 31.1465 -65.0674 79.3594 -65.0674 133.76s25.3867 102.613 65.0674 133.76l20.2666 122.24h170.666l20.4805 -122.24
c39.4668 -31.1465 64.8535 -79.5732 64.8535 -133.76zM128 192c0 -70.6133 57.3867 -128 128 -128s128 57.3867 128 128s-57.3867 128 -128 128s-128 -57.3867 -128 -128z" />
    <glyph glyph-name="uniF39F" unicode="&#xf39f;" 
d="M362.667 426.453c23.4668 0 42.666 -18.9863 42.666 -42.4531v-384c0 -23.4668 -19.1992 -42.667 -42.666 -42.667h-213.334c-23.4668 0 -42.666 19.2002 -42.666 42.667v384c0 23.4668 19.1992 42.667 42.666 42.667zM362.667 42.667v298.666h-213.334v-298.666h213.334
zM341.333 170.667l-85.333 -85.334l-85.333 85.334h64v106.666h42.666v-106.666h64z" />
    <glyph glyph-name="uniF2A3" unicode="&#xf2a3;" 
d="M456.747 200.96c7.67969 -7.67969 12.5859 -18.5596 12.5859 -30.293s-4.69336 -22.4004 -12.5859 -30.0801l-149.334 -149.334c-7.67969 -7.89258 -18.3467 -12.5859 -30.0801 -12.5859s-22.3994 4.69336 -30.0801 12.373l-192 192
c-7.89258 7.89355 -12.5859 18.5596 -12.5859 30.293v149.334c0 23.4668 19.1992 42.666 42.666 42.666h149.334c11.7334 0 22.3994 -4.69336 30.0801 -12.373zM117.333 298.667c17.707 0 32 14.293 32 32c0 17.7061 -14.293 32 -32 32c-17.7061 0 -32 -14.2939 -32 -32
c0 -17.707 14.2939 -32 32 -32zM368.427 122.24c9.59961 9.59961 15.5732 23.04 15.5732 37.7598c0 29.4404 -23.8936 53.333 -53.333 53.333c-14.7207 0 -28.1602 -5.97266 -37.7607 -15.5732l-15.5732 -15.5732l-15.5732 15.3604
c-9.59961 9.81348 -23.04 15.7861 -37.7598 15.7861c-29.4404 0 -53.333 -23.8926 -53.333 -53.333c0 -14.7197 5.97266 -27.9463 15.5732 -37.7598l91.0928 -91.0938z" />
    <glyph glyph-name="uniF20B" unicode="&#xf20b;" 
d="M149.333 128h213.334v-42.667h-213.334v42.667zM64 0v42.667h384v-42.667h-384zM64 170.667v42.666h384v-42.666h-384zM149.333 298.667h213.334v-42.667h-213.334v42.667zM64 384h384v-42.667h-384v42.667z" />
    <glyph glyph-name="uniF191" unicode="&#xf191;" 
d="M412.8 233.813c55.4668 -3.83984 99.2002 -49.4932 99.2002 -105.813c0 -58.8799 -47.7871 -106.667 -106.667 -106.667h-277.333c-70.6133 0 -128 57.3867 -128 128c0 65.9199 49.9199 120.32 114.134 127.147c26.666 51.1992 80.2129 86.1865 141.866 86.1865
c77.6533 0 142.293 -55.2539 156.8 -128.854zM405.333 64c35.4141 0 64 28.5869 64 64s-28.5859 64 -64 64h-32v10.667c0 64.8525 -52.4795 117.333 -117.333 117.333c-53.7598 0 -98.7734 -36.0537 -112.854 -85.333h-15.1465c-47.1465 0 -85.333 -38.1865 -85.333 -85.334
c0 -47.1465 38.1865 -85.333 85.333 -85.333h277.333z" />
    <glyph glyph-name="uniF2D1" unicode="&#xf2d1;" 
d="M85.333 362.667v-149.334h-42.666v149.334c0 23.4668 19.1992 42.666 42.666 42.666h149.334v-42.666h-149.334zM213.333 170.667l63.3604 -79.1475l43.3066 57.8135l64 -85.333h-256zM362.667 266.667c0 -17.707 -14.2939 -32 -32 -32c-17.707 0 -32 14.293 -32 32
c0 17.7061 14.293 32 32 32c17.7061 0 32 -14.2939 32 -32zM426.667 405.333c23.4668 0 42.666 -19.1992 42.666 -42.666v-149.334h-42.666v149.334h-149.334v42.666h149.334zM426.667 21.333v149.334h42.666v-149.334c0 -23.4668 -19.1992 -42.666 -42.666 -42.666
h-149.334v42.666h149.334zM85.333 170.667v-149.334h149.334v-42.666h-149.334c-23.4668 0 -42.666 19.1992 -42.666 42.666v149.334h42.666z" />
    <glyph glyph-name="uniF172" unicode="&#xf172;" 
d="M362.667 12.5869l-72.7471 72.7461l30.0801 30.0801l72.7471 -72.7461zM160 277.333l96 96l96 -96h-74.667v-136.746l-128 -128l-30.0801 30.0801l115.414 115.413v119.253h-74.667z" />
    <glyph glyph-name="uniF325" unicode="&#xf325;" 
d="M149.333 298.667v-85.334h-42.666v128h256v64l85.333 -85.333l-85.333 -85.333v64h-213.334zM362.667 85.333v85.334h42.666v-128h-256v-64l-85.333 85.333l85.333 85.333v-64h213.334z" />
    <glyph glyph-name="uniF233" unicode="&#xf233;" 
d="M170.667 234.667v-42.667h-64v-64h-42.667v64h-64v42.667h64v64h42.667v-64h64zM384 213.333c-6.82715 0 -13.4404 1.06738 -19.4131 2.9873c11.9463 17.4932 19.2002 38.1865 19.2002 61.0127c0 22.8271 -7.04004 43.7334 -19.2002 61.0137
c5.97266 1.91992 12.5859 2.98633 19.4131 2.98633c35.4131 0 63.7871 -28.5859 63.7871 -64c0 -35.4131 -28.374 -64 -63.7871 -64zM277.333 213.333c-35.4131 0 -64 28.5869 -64 64c0 35.4141 28.5869 64 64 64c35.4141 0 63.7871 -28.5859 63.7871 -64
c0 -35.4131 -28.373 -64 -63.7871 -64zM418.56 167.253c42.8809 -7.46582 93.4404 -27.7334 93.4404 -60.5859v-42.667h-64v42.667c0 25.1729 -11.7334 45.0127 -29.4404 60.5859zM277.333 170.667c42.667 0 128 -21.334 128 -64v-42.667h-256v42.667
c0 42.666 85.334 64 128 64z" />
    <glyph glyph-name="uniF2D0" unicode="&#xf2d0;" 
d="M245.333 -21.333c-23.4668 0 -42.666 19.1992 -42.666 42.666h85.333c0 -23.4668 -19.2002 -42.666 -42.667 -42.666zM384 106.667l42.667 -42.667v-21.333h-362.667v21.333l42.667 42.667v117.333c0 65.4932 45.4395 120.32 106.666 134.827v14.5059
c0 17.707 14.2939 32 32 32c17.707 0 32 -14.293 32 -32v-14.5059c61.2266 -14.5068 106.667 -69.334 106.667 -134.827v-117.333zM298.667 238.934v38.3994h-106.667v-38.3994h59.7334l-59.7334 -72.5332v-38.4004h106.667v38.4004h-59.7334z" />
    <glyph glyph-name="uniF2FF" unicode="&#xf2ff;" 
d="M405.333 298.667v-128h-170.666v128h170.666zM448 384c23.4668 0 42.667 -19.2002 42.667 -42.667v-298.666c0 -23.4668 -19.2002 -42.2402 -42.667 -42.2402h-384c-23.4668 0 -42.667 18.7734 -42.667 42.2402v298.666c0 23.4668 19.2002 42.667 42.667 42.667h384z
M448 42.4531v299.307h-384v-299.307h384z" />
    <glyph glyph-name="uniF379" unicode="&#xf379;" 
d="M128 320h42.667v-256h-42.667v256zM202.667 -64l181.333 384v-512z" />
    <glyph glyph-name="uniF1D8" unicode="&#xf1d8;" 
d="M405.333 384c23.4668 0 42.667 -19.2002 42.667 -42.667v-298.666c0 -23.4668 -19.2002 -42.667 -42.667 -42.667h-298.666c-23.4668 0 -42.667 19.2002 -42.667 42.667v298.666c0 23.4668 19.2002 42.667 42.667 42.667h298.666zM320 256v42.667h-128v-213.334h128
v42.667h-85.333v42.667h85.333v42.666h-85.333v42.667h85.333z" />
    <glyph glyph-name="uniF205" unicode="&#xf205;" 
d="M192 298.667v-42.667h-42.667v42.667h42.667zM192 213.333v-42.666h-42.667v42.666h42.667zM192 384v-42.667h-42.667c0 23.4668 18.9873 42.667 42.667 42.667zM277.333 128v-42.667h-42.666v42.667h42.666zM405.333 384c23.4668 0 42.667 -19.2002 42.667 -42.667
h-42.667v42.667zM277.333 384v-42.667h-42.666v42.667h42.666zM192 85.333c-23.6797 0 -42.667 19.2002 -42.667 42.667h42.667v-42.667zM405.333 170.667v42.666h42.667v-42.666h-42.667zM405.333 256v42.667h42.667v-42.667h-42.667zM405.333 85.333v42.667h42.667
c0 -23.4668 -19.2002 -42.667 -42.667 -42.667zM106.667 298.667v-256h256v-42.667h-256c-23.6807 0 -42.667 19.2002 -42.667 42.667v256h42.667zM320 341.333v42.667h42.667v-42.667h-42.667zM320 85.333v42.667h42.667v-42.667h-42.667z" />
    <glyph glyph-name="uniF1BA" unicode="&#xf1ba;" 
d="M85.333 106.667v213.333c0 74.667 76.374 85.333 170.667 85.333s170.667 -10.666 170.667 -85.333v-213.333c0 -18.7734 -8.32031 -35.627 -21.334 -47.3604v-37.9736c0 -11.7334 -9.59961 -21.333 -21.333 -21.333h-21.333c-11.7334 0 -21.334 9.59961 -21.334 21.333
v21.334h-170.666v-21.334c0 -11.7334 -9.60059 -21.333 -21.334 -21.333h-21.333c-11.7334 0 -21.333 9.59961 -21.333 21.333v37.9736c-13.0137 11.7334 -21.334 28.5869 -21.334 47.3604zM160 85.333c17.707 0 32 14.2939 32 32c0 17.707 -14.293 32 -32 32
s-32 -14.293 -32 -32c0 -17.7061 14.293 -32 32 -32zM352 85.333c17.707 0 32 14.2939 32 32c0 17.707 -14.293 32 -32 32s-32 -14.293 -32 -32c0 -17.7061 14.293 -32 32 -32zM384 213.333v106.667h-256v-106.667h256z" />
    <glyph glyph-name="uniF228" unicode="&#xf228;" 
d="M97.9199 301.014l-37.333 36.4795c4.69336 5.75977 11.0928 12.1602 18.7734 19.8398c5.33301 5.33398 29.8662 26.667 58.0264 26.667c18.5596 0 53.5469 -14.7197 53.5469 -61.0137c0 -29.0127 -11.0938 -45.6533 -27.7334 -69.9727
c-9.60059 -14.0801 -32 -51.8408 -39.4668 -75.0938c-7.67969 -23.2529 -1.91992 -40.96 7.67969 -40.96c9.17383 0 18.3467 11.5205 23.6807 17.9199c4.90625 5.12012 36.4795 42.4531 48.8525 58.0264c16.2139 19.8408 57.3867 60.5869 105.387 60.5869
c62.7207 0 82.7734 -54.3994 85.9736 -89.5996h52.6934v-53.334h-52.4805c-8.5332 -101.76 -65.2793 -130.133 -100.053 -130.133c-37.7598 0 -68.4805 29.6533 -68.4805 65.9199s34.1338 100.906 114.773 114.56c-2.34668 16.6406 -2.77344 38.1875 -37.5469 38.1875
c-26.666 0 -61.2266 -41.6006 -87.04 -73.3867c-23.6797 -29.2266 -42.4531 -52.4805 -65.2793 -59.0938c-19.2002 -5.75977 -40.3203 -2.13281 -56.3203 9.81348c-18.3467 13.6533 -28.5869 36.2666 -28.5869 63.5732c0 51.627 55.6807 125.653 61.0137 134.613
c6.40039 10.4531 17.0664 28.1602 6.40039 32.4268c-6.61328 2.77344 -21.5469 -10.8799 -36.4805 -26.0264zM296.106 52.2666c14.9336 0 39.04 16.8535 45.4404 74.2402c-45.6533 -11.9473 -61.2266 -46.0801 -61.2266 -58.8799
c0 -9.81348 9.17285 -15.3604 15.7861 -15.3604z" />
    <glyph glyph-name="uniF3C5" unicode="&#xf3c5;" 
d="M266.667 277.333c99.1992 0 183.04 -64.6396 212.693 -154.026l-50.5605 -16.6396c-22.3994 68.0527 -86.6133 117.333 -162.133 117.333c-41.8135 0 -79.5732 -15.3604 -109.227 -40.1064l77.2266 -77.2266h-192v192l76.7998 -76.8008
c39.4668 34.3467 90.667 55.4668 147.2 55.4668z" />
    <glyph glyph-name="uniF287" unicode="&#xf287;" 
d="M448 341.333v-42.666l-42.667 -128l42.667 -128v-42.667h-384v42.667l42.667 128l-42.667 128v42.666h270.72l31.1465 85.334l50.1338 -18.3467l-24.3203 -66.9873h56.3203zM341.333 149.333v42.667h-64v64h-42.666v-64h-64v-42.667h64v-64h42.666v64h64z" />
    <glyph glyph-name="uniF34A" unicode="&#xf34a;" 
d="M384 298.667h21.333v-128l-64 -128v-64h-170.666v64l-64 128v128h21.333v64c0 23.4668 19.2002 42.666 42.667 42.666h170.666c23.4668 0 42.667 -19.1992 42.667 -42.666v-64zM170.667 362.667v-64h42.666v42.666h21.334v-42.666h42.666v42.666h21.334v-42.666h42.666
v64h-170.666z" />
    <glyph glyph-name="uniF23D" unicode="&#xf23d;" 
d="M256 405.333c117.76 0 213.333 -95.5732 213.333 -213.333s-95.5732 -213.333 -213.333 -213.333s-213.333 95.5732 -213.333 213.333s95.5732 213.333 213.333 213.333zM277.333 42.667v42.666h-42.666v-42.666h42.666zM321.493 208
c12.1602 12.1602 19.8398 29.2266 19.8398 48c0 47.1465 -38.1865 85.333 -85.333 85.333s-85.333 -38.1865 -85.333 -85.333h42.666c0 23.4668 19.2002 42.667 42.667 42.667s42.667 -19.2002 42.667 -42.667c0 -11.7334 -4.69336 -22.4004 -12.5869 -30.0801
l-26.4531 -26.8799c-15.3604 -15.5732 -24.96 -36.9062 -24.96 -60.373v-10.667h42.666c0 32 9.60059 44.7998 24.96 60.373z" />
    <glyph glyph-name="uniF13A" unicode="&#xf13a;" 
d="M334.293 362.667c15.5732 0 28.374 -12.8008 28.374 -28.374v-327.253c0 -15.5732 -12.8008 -28.373 -28.5869 -28.373h-156.373c-15.5732 0 -28.374 12.7998 -28.374 28.5859v327.04c0 15.5732 12.8008 28.374 28.374 28.374h35.626v42.666h85.334v-42.666h35.626z
M277.333 64v42.667h-42.666v-42.667h42.666zM277.333 149.333v106.667h-42.666v-106.667h42.666z" />
    <glyph glyph-name="uniF342" unicode="&#xf342;" 
d="M298.667 192c0 -23.4668 -19.2002 -42.667 -42.667 -42.667s-42.667 19.2002 -42.667 42.667s19.2002 42.667 42.667 42.667s42.667 -19.2002 42.667 -42.667zM256 384c106.026 0 192 -85.9736 192 -192s-85.9736 -192 -192 -192
c-43.9463 0 -84.4805 14.9336 -116.906 39.6797l30.293 30.7207c24.5332 -17.2803 54.4004 -27.7334 86.6133 -27.7334c82.5596 0 149.333 66.7734 149.333 149.333s-66.7734 149.333 -149.333 149.333s-149.333 -66.7734 -149.333 -149.333h64l-85.334 -85.333
l-85.333 85.333h64c0 106.026 85.9736 192 192 192z" />
    <glyph glyph-name="uniF2BA" unicode="&#xf2ba;" 
d="M149.333 64v256h42.667v-256h-42.667zM234.667 -21.333v426.666h42.666v-426.666h-42.666zM64 149.333v85.334h42.667v-85.334h-42.667zM320 64v256h42.667v-256h-42.667zM405.333 234.667h42.667v-85.334h-42.667v85.334z" />
    <glyph glyph-name="uniF350" unicode="&#xf350;" 
d="M192 106.667c-35.4131 0 -64 28.5859 -64 64c0 33.0664 24.96 60.1602 57.1729 63.5732h3.41406c11.9463 25.3867 37.5469 43.0928 67.4131 43.0928c37.5469 0 68.4805 -27.9463 73.5996 -64h1.06738c29.4395 0 53.333 -23.8926 53.333 -53.333
s-23.8936 -53.333 -53.333 -53.333h-138.667zM448 384c23.4668 0 42.667 -19.2002 42.667 -42.667v-298.666c0 -23.4668 -19.2002 -42.667 -42.667 -42.667h-384c-23.4668 0 -42.667 19.2002 -42.667 42.667v298.666c0 23.4668 19.2002 42.667 42.667 42.667h384z
M448 42.4531v299.094h-384v-299.094h384z" />
    <glyph glyph-name="uniF148" unicode="&#xf148;" 
d="M303.787 191.787l49.7061 49.4932c5.75977 -15.3604 9.17383 -31.7871 9.17383 -49.2803s-3.41406 -34.3467 -9.38672 -49.707zM416.64 304.854c19.8408 -32.4268 31.3604 -70.4004 31.5732 -110.72c0 -41.6006 -12.1592 -80.4268 -32.8525 -113.28l-25.6006 25.5996
c13.2266 25.6006 20.9072 54.8271 20.9072 85.7598c0 30.9336 -7.4668 59.9473 -20.9072 85.7607zM335.146 283.52l-91.7334 -91.5195l91.7334 -91.5195l-121.813 -121.813h-21.333v161.92l-97.9199 -97.9199l-30.0801 30.0801l119.253 119.253l-119.253 119.253
l30.0801 30.0801l97.9199 -97.9199v161.92h21.333zM234.667 323.627v-80.2139l40.1064 40.1064zM274.773 100.48l-40.1064 40.1064v-80.2139z" />
    <glyph glyph-name="uniF167" unicode="&#xf167;" 
d="M426.667 262.613l70.6133 -70.6133l-70.6133 -70.6133v-100.054h-100.054l-70.6133 -70.6133l-70.6133 70.6133h-100.054v100.054l-70.6133 70.6133l70.6133 70.6133v100.054h100.054l70.6133 70.6133l70.6133 -70.6133h100.054v-100.054zM256 64
c70.6133 0 128 57.3867 128 128s-57.3867 128 -128 128s-128 -57.3867 -128 -128s57.3867 -128 128 -128zM256 277.333c47.1465 0 85.333 -38.1865 85.333 -85.333s-38.1865 -85.333 -85.333 -85.333s-85.333 38.1865 -85.333 85.333s38.1865 85.333 85.333 85.333z" />
    <glyph glyph-name="uniF256" unicode="&#xf256;" 
d="M426.667 341.333c23.4668 0 42.666 -19.1992 42.666 -42.666v-213.334c0 -23.4668 -19.1992 -42.666 -42.666 -42.666h-341.334c-23.4668 0 -42.666 19.1992 -42.666 42.666l0.212891 213.334c0 23.4668 18.9863 42.666 42.4531 42.666h341.334zM234.667 277.333v-42.666
h42.666v42.666h-42.666zM234.667 213.333v-42.666h42.666v42.666h-42.666zM170.667 277.333v-42.666h42.666v42.666h-42.666zM170.667 213.333v-42.666h42.666v42.666h-42.666zM149.333 170.667v42.666h-42.666v-42.666h42.666zM149.333 234.667v42.666h-42.666v-42.666
h42.666zM341.333 85.333v42.667h-170.666v-42.667h170.666zM341.333 170.667v42.666h-42.666v-42.666h42.666zM341.333 234.667v42.666h-42.666v-42.666h42.666zM405.333 170.667v42.666h-42.666v-42.666h42.666zM405.333 234.667v42.666h-42.666v-42.666h42.666z" />
    <glyph glyph-name="uniF38F" unicode="&#xf38f;" 
d="M426.667 362.667v-42.667h-341.334v42.667h341.334zM448 149.333h-21.333v-128h-42.667v128h-85.333v-128h-213.334v128h-21.333v42.667l21.333 106.667h341.334l21.333 -106.667v-42.667zM256 64v85.333h-128v-85.333h128z" />
    <glyph glyph-name="uniF320" unicode="&#xf320;" 
d="M405.333 170.667h-298.666v42.666h298.666v-42.666z" />
    <glyph glyph-name="uniF2DB" unicode="&#xf2db;" 
d="M426.667 308.48c-55.4668 -16.6406 -112.641 -24.9609 -170.667 -24.7471c-58.0264 0 -115.2 8.32031 -170.667 24.7471v-232.747c55.4668 16.4268 112.641 24.7471 170.667 24.7471s115.2 -8.32031 170.667 -24.7471v232.747zM457.173 362.667
c7.04004 0 12.1602 -4.90723 12.1602 -13.4404v-314.453c0 -8.5332 -5.12012 -13.4404 -12.1602 -13.4404c-2.13281 0 -4.2666 0.426758 -6.61328 1.28027c-62.7197 23.2529 -128.64 34.9863 -194.56 34.9863s-131.84 -11.5195 -194.56 -34.9863
c-2.34668 -0.853516 -4.48047 -1.28027 -6.61328 -1.28027c-7.25391 0 -12.1602 4.90723 -12.1602 13.2266v314.667c0 8.5332 4.90625 13.4404 12.1602 13.4404c1.91992 0 4.2666 -0.426758 6.61328 -1.28027c62.7197 -23.2529 128.64 -34.9863 194.56 -34.9863
s131.84 11.5195 194.56 34.9863c2.34668 0.853516 4.48047 1.28027 6.61328 1.28027z" />
    </font>
</defs>
</svg>
